<?xml version="1.0" standalone="no"?>
<!DOCTYPE svg PUBLIC "-//W3C//DTD SVG 1.1//EN" "http://www.w3.org/Graphics/SVG/1.1/DTD/svg11.dtd" >
<svg xmlns="http://www.w3.org/2000/svg" xmlns:xlink="http://www.w3.org/1999/xlink" version="1.1">
<metadata></metadata>
<defs>
<font id="utm_bienvenueregular" horiz-adv-x="1712" >
<font-face units-per-em="2048" ascent="1638" descent="-410" />
<missing-glyph horiz-adv-x="339" />
<glyph unicode="&#xd;" horiz-adv-x="571" />
<glyph unicode=" "  horiz-adv-x="339" />
<glyph unicode="&#x09;" horiz-adv-x="339" />
<glyph unicode="&#xa0;" horiz-adv-x="339" />
<glyph unicode="!" horiz-adv-x="514" d="M90 1272q0 106 41 161.5t86 74t86 18.5q104 0 162 -88q39 -56 39 -140q0 -24 -1 -54t-16 -75q-4 -22 -14 -60t-21 -69l-36 -120q-9 -27 -28 -101t-26.5 -113.5t-11.5 -87t-4 -110.5v-55h-143v90q0 225 -41 370l-33 127l-29 125zM98 176q0 117 125 156l41 6q70 0 111 -38 t55 -72.5t14 -71.5q0 -25 -9 -72t-77 -78q-61 -24 -92 -24q-51 0 -93 30.5t-60 75.5q-7 21 -11 42.5t-4 45.5z" />
<glyph unicode="&#x22;" horiz-adv-x="534" d="M83 1479q0 47 8 73.5t27.5 40t48.5 13.5q22 0 44 -11.5t32 -37t10 -80.5l-6 -95l-8 -53l-47 -368h-41l-50 364l-12 80zM321 1485q0 43 8 70.5t25.5 37t47.5 13.5q23 0 45.5 -12.5t29.5 -39t9.5 -37t2.5 -36.5q0 -41 -9 -88l-8 -64l-45 -368h-41l-45 364l-12 76z" />
<glyph unicode="#" horiz-adv-x="1552" d="M65 436l51 154h309l99 293h-305l51 147h311l158 443h168l-152 -443h279l157 443h166l-147 -443h303l-47 -147h-307l-99 -293h303l-51 -146h-305l-158 -446h-168l148 442h-283l-155 -442h-168l153 438h-311zM606 590h278l96 293h-278z" />
<glyph unicode="$" horiz-adv-x="983" d="M43 303l145 221q99 -110 210.5 -185t201.5 -75q37 4 64.5 16.5t44.5 41.5q18 24 18 57q0 22 -12.5 63t-67.5 67t-141 58l-60 21q-118 41 -194 98q-66 53 -78 117l-8 84q0 71 36 148t91 116t84 51l51 21v102h186v-90h23q115 -25 162 -45q53 -19 139 -78l-147 -199 q-41 33 -84 64q-33 22 -89 57q-88 53 -151 53q-33 0 -55 -14q-52 -26 -52 -86q0 -49 56.5 -77.5t142.5 -55.5l72 -25q125 -34 190 -84q68 -45 94 -120q5 -15 16 -55t11 -70q0 -49 -18 -109q-11 -35 -22 -56.5t-38 -55.5q-45 -58 -105.5 -91.5t-144.5 -52.5v-135h-186v125 q-49 6 -93 18.5t-93 34.5q-93 43 -199 125z" />
<glyph unicode="%" horiz-adv-x="1435" d="M38 975v29q0 40 11.5 76t33.5 71q37 61 105.5 100t142.5 52l37 2q39 0 75.5 -6.5t77.5 -22.5q78 -25 124 -79t67.5 -114.5t21.5 -113.5q0 -45 -16 -107.5t-72 -118.5q-47 -49 -120.5 -75.5t-131.5 -26.5q-67 0 -129.5 18.5t-115.5 63.5q-54 41 -84 113q-7 16 -17 58 t-10 81zM206 1038q0 -39 6 -78.5t21 -85.5q26 -77 73 -118q47 -35 103 -35q32 0 68 15.5t54.5 47t24.5 64.5l6 53q0 78 -28 162q-25 84 -71 123t-103 39q-25 0 -36.5 -3t-37 -14.5t-49 -49.5t-29.5 -87zM251 100l868 1176l117 -90l-868 -1176zM753 356q0 41 11 75t36 71 q37 59 121 114l61 23l64 16l22 2h19q38 0 74 -6t77 -22q78 -25 123 -77t66.5 -113.5t21.5 -116.5q0 -43 -12 -86q-19 -82 -73 -136.5t-116 -74.5l-84 -25l-59 -4q-61 0 -127 18q-61 21 -115.5 64t-83.5 125q-26 86 -26 153zM923 395q0 -76 26.5 -162t72.5 -121.5t103 -35.5 q35 0 68 13t53.5 49t26.5 65l4 53q0 80 -29 160q-24 84 -73.5 124t-102.5 40q-33 0 -91 -29t-58 -127v-29z" />
<glyph unicode="&#x26;" horiz-adv-x="1611" d="M71 385q0 127 67.5 251t188.5 202l127 80q-25 71 -37 125.5t-12 111.5q0 55 10 94t23.5 64.5t44.5 70.5q51 76 163.5 124t208.5 48q78 0 158 -21.5t133 -82.5t53 -156v-24l-4 -25q-24 -117 -127 -182q-90 -55 -202 -113l-70 -37l33 -77q22 -50 93 -157.5t105 -148.5 l72 -77q43 55 75 129.5t32 115.5q0 21 -7.5 45.5t-35 36t-68.5 11.5v131h436v-131h-162l-2 -27q0 -154 -42 -247t-117 -187q61 -68 119.5 -100.5t119.5 -32.5l41 2q27 4 42.5 10t33.5 25l59 -70q-73 -94 -156 -139t-171 -45q-82 0 -135.5 26.5t-145.5 118.5l-4 -4 q-256 -168 -461 -168q-121 0 -234.5 54t-179 155.5t-65.5 220.5zM372 485q0 -43 12 -79q19 -74 77.5 -130.5t115.5 -80.5q61 -23 108 -23q58 0 112 18.5t101 61.5l-96 108l-115 152l-98 147l-55 105l-27 -16l-18 -17l-43 -49q-35 -41 -54.5 -94t-19.5 -103zM667 1262 q0 -50 18.5 -108t51.5 -112q41 17 88 48.5t73 68.5q43 60 43 121q0 35 -22 86q-19 57 -103 57q-79 0 -114 -52t-35 -109z" />
<glyph unicode="'" horiz-adv-x="442" d="M65 1350l6 49q4 14 9 22.5t20 28.5q22 29 62 46t83 17q37 0 75 -25.5t62.5 -69.5t24.5 -95q0 -74 -44 -143.5t-93 -106.5q-49 -33 -135 -61l-31 98q43 6 77 31.5t34 62.5q-46 0 -82.5 21.5t-55.5 60.5q-12 37 -12 64z" />
<glyph unicode="(" horiz-adv-x="657" d="M61 709q0 69 6 134.5t23 145.5q30 148 129.5 335t261.5 347l145 -102q-123 -223 -184.5 -435t-61.5 -417q0 -199 43.5 -358.5t75.5 -235.5q19 -47 42.5 -93t66.5 -120l-146 -103q-213 207 -307 435.5t-94 466.5z" />
<glyph unicode=")" horiz-adv-x="657" d="M65 1569l143 102q156 -149 263 -344q98 -188 135 -364l16 -123l6 -129q0 -242 -93 -468.5t-308 -435.5l-144 103q68 123 105 210t80 246.5t43 350.5q0 403 -246 852z" />
<glyph unicode="*" horiz-adv-x="823" d="M67 1036q0 21 12.5 49.5t44.5 36.5l78 15l68 8l39 6l45 14q24 9 26 21q-12 14 -20 18l-51 19q-17 4 -31 6t-31 4h-45q-24 0 -48 3t-54 26q-17 16 -23 37.5t-6 46.5q0 22 19.5 45.5t44.5 31.5l41 11q36 0 61 -27l68 -80l61 -76q16 -16 39 -16q6 10 6 16l-6 33l-10 41 l-31 80q-18 53 -23 88l5 31q16 49 43 55l45 8q41 0 69.5 -25.5t28.5 -68.5v-18q-6 -39 -16 -58q-7 -20 -25 -51q-10 -18 -29 -63l-10 -54q0 -10 6 -16q17 4 25 8l33 25l20 18l45 68q39 57 90 78l33 4q29 0 60.5 -22.5t31.5 -88.5q0 -43 -31.5 -61.5t-72.5 -24.5l-84 -4 q-127 -12 -133 -39q10 -10 18 -14l51 -21q23 -8 111 -22q41 0 61.5 -5.5t50 -22.5t29.5 -81q0 -41 -37 -65q-37 -19 -61 -19q-19 0 -49 12q-29 17 -52 50l-36 57l-29 37l-19 14q-16 16 -36 27q-4 2 -10.5 2h-8.5q-6 -6 -6 -23q0 -22 10 -59l33 -84l31 -70q8 -20 6 -45 q-12 -47 -43 -63q-8 -2 -23.5 -5t-31.5 -6q-39 0 -66 17q-27 20 -27 76q0 39 23 90l35 84l14 57q4 25 -2 31q-8 8 -25 -4l-36 -31l-70 -88q-49 -74 -109 -74q-26 0 -47.5 8.5t-40.5 32.5q-16 17 -16 49z" />
<glyph unicode="+" horiz-adv-x="1671" d="M217 539v252h535v542h251v-542h531v-252h-531v-539h-251v539h-535z" />
<glyph unicode="," horiz-adv-x="442" d="M59 113q0 57 28.5 96t69.5 54.5t80 15.5q35 0 75 -23t63.5 -69t23.5 -97q0 -72 -42 -142.5t-95 -105.5q-47 -35 -135 -63l-29 98l39 12l41 25q28 18 28 59q-45 0 -80.5 20.5t-54.5 55.5q-12 31 -12 64z" />
<glyph unicode="-" horiz-adv-x="696" d="M79 410v155h596v-155h-596z" />
<glyph unicode="." horiz-adv-x="419" d="M67 141q0 62 29.5 104t93.5 60l35 6q51 0 102 -45t51 -114l-4 -43q-4 -27 -26.5 -56.5t-59.5 -48.5q-37 -14 -71 -14q-41 0 -95.5 35.5t-54.5 115.5z" />
<glyph unicode="/" horiz-adv-x="1435" d="M69 82l1208 1630l166 -125l-1208 -1630z" />
<glyph unicode="0" horiz-adv-x="1089" d="M63 702q0 134 72.5 320t152.5 235.5t123 67.5l86 21l68 6q80 0 161.5 -32t162.5 -121t126 -238.5t45 -313.5q0 -125 -25.5 -236.5t-111.5 -244.5q-78 -123 -166 -158l-129 -39q-47 -10 -86 -10q-61 0 -114.5 16.5t-154.5 92t-155.5 257t-54.5 377.5zM292 946 q0 -141 89.5 -414.5t165 -324.5t120.5 -51q21 0 33 3t42 15t51.5 52t31.5 98q0 157 -87 432.5t-149.5 330t-89.5 62.5l-45 8q-22 0 -67 -16.5t-72 -73.5q-23 -55 -23 -121z" />
<glyph unicode="1" horiz-adv-x="1089" d="M262 989v113l82 26q14 7 43 22t57.5 33.5t38.5 24.5q33 23 55 45l52 50h139l-4 -72l-2 -51v-1071h119v-109h-560v109h130v923z" />
<glyph unicode="2" horiz-adv-x="1089" d="M122 922v30q0 92 57 183q29 41 70 77.5t96.5 66.5t115.5 44t138 14q137 0 236.5 -57t146.5 -141q49 -80 49 -195q0 -125 -64.5 -232.5t-162.5 -202.5t-274 -237l-56 -45h168q133 0 200.5 18.5t86.5 100.5h102l-59 -399h-105l7 53h-664l-70 201q166 118 373 349.5 t207 375.5q0 69 -36 140t-85 97.5t-90 26.5q-37 0 -81 -25.5t-44 -113.5q0 -62 44 -124.5t116 -105.5l-221 -227q-201 147 -201 328z" />
<glyph unicode="3" horiz-adv-x="1089" d="M96 174l211 217q43 -49 94 -100q43 -43 84 -75t79 -46t85 -14h25q43 6 75.5 28.5t53.5 65.5q10 20 16 42.5t6 47.5q0 74 -40 141.5t-110.5 119.5t-146.5 52l-61 -2l-54 -20l-63 92l352 350h-74q-63 0 -113 -2t-95 -4q-70 0 -138 -90l-102 37l135 358l105 -41l-9 -22h492 l96 -168l-33 -25l-34 -31l-228 -227q135 -31 221 -91t112 -156.5t26 -139.5q0 -88 -29 -160q-25 -75 -98.5 -157t-191.5 -132.5t-228 -50.5h-41l-109 15q-88 10 -270 188z" />
<glyph unicode="4" horiz-adv-x="1089" d="M65 358v156l614 795h224l-13 -115l-4 -78v-602h47h33l53 2q29 0 54 8l-50 -159h-137v-256h111v-109h-584v109h166v256h-420zM258 514h321v432z" />
<glyph unicode="5" horiz-adv-x="1089" d="M106 168l190 217q68 -82 129 -137q56 -49 101 -68l69 -20l56 -6q59 0 107 29.5t71 84.5q18 56 18 113q0 154 -122.5 224.5t-202.5 70.5q-88 0 -170 -47l-123 26l133 676h528l17 60h104l-59 -295l-62 6l-67 2h-330l-41 -213l39 10l66 12l67 7q94 0 178 -33 q84 -29 143.5 -96.5t84 -142.5t24.5 -159q0 -81 -31.5 -185.5t-112.5 -181.5t-183.5 -107.5t-171.5 -30.5q-62 0 -116 10t-118 37q-119 49 -215 137z" />
<glyph unicode="6" horiz-adv-x="1089" d="M75 596q0 88 10 160.5t37 156.5q49 154 140.5 251.5t191.5 138.5q51 18 100 28t103 10q22 0 52 -2t75 -9t109.5 -46t139.5 -115l-180 -174q-61 84 -133 131q-67 50 -139 50q-8 0 -29.5 -2.5t-52.5 -8.5q-57 -6 -102 -96q-21 -43 -31 -91t-10 -110q0 -65 12 -127 q168 125 303 125q72 0 155 -33.5t138 -109.5t67.5 -148.5t12.5 -117.5q0 -99 -37 -197t-113 -168q-67 -61 -153 -92q-52 -16 -93 -21.5t-77 -5.5q-68 0 -159 26t-179 121t-125 222q-17 68 -25 125t-8 129zM411 449q0 -52 15.5 -102t41.5 -103q49 -90 90 -115q41 -16 76 -20 q39 0 78 24.5t58.5 71.5t19.5 96l-8 72q-7 53 -46.5 144t-78.5 113.5t-64 28.5l-41 5q-39 0 -72.5 -20.5t-51 -67t-17.5 -99.5v-28z" />
<glyph unicode="7" horiz-adv-x="1089" d="M188 954l82 408h102l-10 -51h555l90 -193q-194 -244 -288.5 -518t-94.5 -557l2 -43h-305l-2 39v31q0 215 104.5 435t315.5 507l51 71h-162q-164 0 -223 -19.5t-121 -131.5z" />
<glyph unicode="8" horiz-adv-x="1089" d="M102 324q0 110 43 201t154 175q-127 123 -127 265q0 41 19.5 115.5t93 140t167.5 94.5q101 26 156 26q86 0 164 -26q82 -25 129 -76q51 -51 74.5 -109.5t23.5 -121.5q0 -31 -9 -70t-18.5 -58.5t-31.5 -50.5q-33 -49 -101 -106q105 -84 148 -158q47 -71 47 -157l-6 -84 q-6 -58 -72 -158t-164 -152.5t-229 -52.5q-142 0 -241 54.5t-163 142.5q-57 90 -57 166zM313 467q2 -14 2 -23q12 -77 78.5 -141.5t157.5 -107.5q73 -31 145 -31q57 0 92 20q62 47 62 113q0 61 -56.5 110.5t-130.5 86.5l-143 75l-113 58q-49 -45 -76 -95q-18 -34 -18 -65z M407 1059q0 -74 87 -133.5t161 -98.5l74 -41q53 39 77.5 77t24.5 83l-4 31q-14 59 -70 108q-49 50 -98 68q-22 8 -45 15.5t-27 7.5l-51 6q-49 0 -76.5 -18.5t-42.5 -49.5q-6 -16 -10 -55z" />
<glyph unicode="9" horiz-adv-x="1089" d="M81 147l184 177q76 -95 138.5 -142t140.5 -47l26 2q105 0 156 105.5t51 234.5l-6 74q-78 -45 -158 -76q-83 -26 -149 -26q-84 0 -173 43t-144.5 135t-55.5 186q0 127 39 246t124 179t161 81.5t155 21.5q95 0 201.5 -44t181 -166.5t97.5 -237.5q8 -45 14 -99.5t6 -91.5 q0 -170 -56 -328.5t-158.5 -247.5t-194.5 -124q-99 -33 -183 -33q-78 0 -142.5 19.5t-128 57.5t-126.5 101zM345 997q0 -43 8.5 -88t26.5 -94q37 -94 90 -136t109 -42q32 0 70 13.5t58.5 59.5t20.5 101q0 92 -38 203.5t-107 163.5q-41 24 -88 24q-33 0 -66 -16.5t-50 -48 t-28 -78.5z" />
<glyph unicode=":" horiz-adv-x="419" d="M67 141q0 62 28.5 103t94.5 59l35 6q57 0 105 -44t48 -115l-4 -44q-4 -26 -26.5 -56t-59.5 -48q-37 -14 -67 -14q-45 0 -99.5 35.5t-54.5 117.5zM67 643q0 64 28.5 104.5t94.5 59.5l31 4q57 0 107 -44t50 -116l-8 -65q-6 -49 -61.5 -73t-94.5 -24q-41 0 -73 21 q-74 53 -74 133z" />
<glyph unicode=";" horiz-adv-x="442" d="M59 113q0 57 28.5 96t69.5 54.5t80 15.5q35 0 75 -23t63.5 -69t23.5 -97q0 -70 -42 -140.5t-91 -105t-139 -65.5l-29 98q33 0 61 25q23 16 35 33.5t12 37.5q-43 0 -79.5 21.5t-55.5 54.5q-12 31 -12 64zM61 643q0 64 28.5 104.5t94.5 59.5l31 4q57 0 107 -44t50 -114 l-8 -65q-6 -49 -63.5 -75t-91.5 -26q-44 0 -96 39t-52 117z" />
<glyph unicode="&#x3c;" horiz-adv-x="1105" d="M92 545v235l958 359v-258l-616 -219l616 -220v-256z" />
<glyph unicode="=" horiz-adv-x="1783" d="M124 246v221h1597v-221h-1597zM124 862v223h1597v-223h-1597z" />
<glyph unicode="&#x3e;" horiz-adv-x="1105" d="M92 186v256l616 220l-616 219v258l958 -359v-235z" />
<glyph unicode="?" horiz-adv-x="935" d="M63 1145q0 63 16.5 116.5t66.5 119t161 116.5q53 23 106 35t111 12q35 0 110.5 -12t159.5 -81t98 -140q9 -37 13 -61.5t4 -53.5q0 -178 -213 -403l-37 -39q-59 -62 -86 -120.5t-27 -117.5l2 -31l2 -26h-182l-12 67l-4 66q0 61 20.5 120.5t69.5 133.5l41 61 q61 86 93 146.5t32 128.5q0 18 -3 40.5t-20 55.5q-18 49 -50 81t-60 38l-43 6q-27 0 -47 -10q-15 -4 -41 -31q-17 -16 -27 -51l-8 -62q0 -32 7 -71t21 -64l41 -76l-252 -127q-12 25 -23 51.5t-24 61.5q-16 59 -16 121zM292 166q0 27 4.5 44t21.5 51t64 65q41 24 89 24 q38 0 97.5 -28.5t74.5 -128.5q0 -21 -1 -39.5t-11.5 -49t-47.5 -67.5q-6 -6 -23.5 -15.5t-37.5 -19.5q-35 -12 -68 -12h-18l-33 10q-21 6 -53.5 36t-45 63.5t-12.5 66.5z" />
<glyph unicode="@" horiz-adv-x="1916" d="M57 545q0 205 92 398.5t252 309t332 160.5q80 23 165 35t171 12q221 0 397 -75.5t266 -200.5t105 -242q8 -55 12 -96t4 -70q0 -145 -56.5 -298.5t-174 -247t-262.5 -93.5q-54 0 -105 20.5t-86 61.5q-27 39 -39 113q-65 -103 -145 -150q-39 -20 -82 -32.5t-92 -12.5 q-74 0 -149 37t-122 117t-47 194q0 142 67.5 276t178.5 216q57 43 108.5 62.5t110.5 19.5q127 0 182 -41q56 -37 93 -119l36 123h248l-131 -457l-31 -108q-12 -56 -12 -99q0 -41 19 -65q18 -19 69 -19l66 9q41 8 102 73q53 62 98.5 169.5t45.5 246.5q0 90 -24 175 t-99.5 189.5t-255.5 161.5q-95 29 -174.5 43.5t-161.5 14.5q-211 0 -383 -101.5t-259 -258t-113 -262t-26 -218.5q0 -102 18.5 -193.5t89.5 -218.5t244 -219t353 -92q182 0 350 45t338 150l51 -84q-172 -109 -368.5 -167.5t-382.5 -58.5q-232 0 -433.5 99.5t-323.5 292 t-122 395.5l-2 39zM755 406q0 -87 47 -115q48 -25 82 -25q33 0 88.5 25.5t117 190.5t71.5 227l8 82q0 38 -8 63t-38 48.5t-81 23.5q-24 0 -81.5 -19.5t-131.5 -218.5t-74 -282z" />
<glyph unicode="A" horiz-adv-x="1536" d="M47 0v121h123l459 1276l14 57l10 47h342l6 -51l15 -53l422 -1276h116v-121h-569v121h98l-88 285h-530l-92 -285h129v-121h-455zM510 547h440l-209 659z" />
<glyph unicode="B" horiz-adv-x="1355" d="M81 0v121h141v1276h-141v123h633q135 0 234.5 -23.5t164.5 -116.5q29 -34 43 -84q6 -24 10.5 -45.5t4.5 -48.5q0 -45 -19.5 -107.5t-67 -103.5t-133.5 -71q148 -35 220.5 -86.5t128 -141.5t55.5 -211t-74 -246.5t-221.5 -180t-310.5 -54.5h-668zM536 121h45h59h39 q25 4 35 4q51 6 106 27q80 28 128 83.5t66.5 126t18.5 121.5q0 56 -17 113t-65.5 114.5t-126 82t-172.5 24.5h-36h-80v-696zM536 965l120 2q35 0 93 20q108 29 129.5 98.5t21.5 102.5q0 76 -41 127t-102.5 66.5t-159.5 15.5h-61v-432z" />
<glyph unicode="C" horiz-adv-x="1511" d="M79 729q0 127 27.5 235.5t119 250t274.5 244t363 102.5q136 0 252.5 -36t241.5 -128l70 63l77 -88l-354 -321l-82 86q15 14 28 47t13 63q0 33 -21.5 69t-68.5 68q-39 25 -92 35l-64 6q-84 0 -161 -34q-80 -31 -152 -109t-115 -215q-20 -68 -30.5 -131.5t-10.5 -134.5 q0 -96 26 -205t115 -230.5t207.5 -170t204.5 -48.5q133 0 226 56l116 80l62 55l84 -100q-127 -146 -287 -215.5t-324 -69.5l-57 2q-22 0 -66 8t-75 14q-123 19 -256 119.5t-212 273.5t-79 359z" />
<glyph unicode="D" horiz-adv-x="1527" d="M75 0v121h141v1276h-141v123h684q231 0 401 -82t271.5 -275.5t101.5 -404.5q0 -238 -123 -431.5t-315.5 -260t-439.5 -66.5h-580zM530 121h37h96q57 0 229 44t234.5 213t75 237.5t12.5 148.5q0 127 -32 236.5t-123 218t-214 145.5q-63 16 -137 24.5t-178 8.5v-1276z" />
<glyph unicode="E" horiz-adv-x="1200" d="M75 0v121h141v1276h-141v123h866h35h74l41 8l131 -295l-96 -45q-95 139 -196 174t-300 35h-100v-445h471v131h125v-421h-125v151h-471v-692h37q235 0 345.5 52t166.5 122l65 84l18 37l97 -47l-180 -387l-50 14l-77 4h-877z" />
<glyph unicode="F" horiz-adv-x="1167" d="M75 0v121h141v1276h-141v123h866h35h74l41 8l131 -295l-96 -45q-95 139 -196 174t-300 35h-100v-445h471v131h125v-421h-125v151h-471v-692h168v-121h-623z" />
<glyph unicode="G" horiz-adv-x="1591" d="M77 725q0 156 68 322q32 81 81.5 153t112.5 131q125 119 279.5 174.5t312.5 55.5q68 0 95.5 -3.5t78.5 -13.5q80 -18 152.5 -53t162.5 -100l78 69l88 -86l-376 -340l-78 82q30 41 30 103q0 38 -21.5 82.5t-75.5 76t-97 37.5l-72 6q-49 0 -88 -8t-92 -33 q-94 -41 -162.5 -119.5t-107.5 -207.5t-39 -258q0 -93 30.5 -216.5t128 -253.5t211.5 -173q121 -39 191 -39q61 0 102 11t78 40t61.5 87t24.5 167v43v280h-323v156h522h22q15 0 45.5 4t42.5 10l52 -100q-48 -49 -59 -96t-11 -123v-324v-69q0 -29 10 -66 q-155 -80 -334.5 -129t-343.5 -49q-108 0 -200.5 19.5t-217 85t-230 228.5t-119 274.5t-13.5 162.5z" />
<glyph unicode="H" horiz-adv-x="1564" d="M67 0v121h141v1276h-141v123h596v-123h-141v-436h596v436h-140v123h594v-123h-139v-1276h139v-121h-594v121h140v700h-596v-700h141v-121h-596z" />
<glyph unicode="I" horiz-adv-x="704" d="M75 0v121h141v1276h-141v123h594v-123h-139v-1276h139v-121h-594z" />
<glyph unicode="J" horiz-adv-x="770" d="M38 203l57 -15l43 -4q29 0 49.5 6.5t38.5 22.5q33 27 45 78q9 47 10 71.5t1 38.5v996h-142v123h598v-123h-141v-1004q0 -121 -22.5 -197.5t-94 -126t-129.5 -63.5q-28 -6 -58 -10t-65 -4q-92 0 -172 31z" />
<glyph unicode="K" horiz-adv-x="1466" d="M75 0v121h141v1276h-141v123h594v-123h-139v-600l506 600h-156v123h481v-123h-112l-396 -455l508 -821h115v-121h-584v121h117l-363 586l-116 -140v-446h139v-121h-594z" />
<glyph unicode="L" horiz-adv-x="1146" d="M75 0v121h141v1276h-141v123h618v-123h-163v-1276h69q232 0 327 43t183 244l92 -29l-155 -467h-103l29 88h-897z" />
<glyph unicode="M" horiz-adv-x="1845" d="M61 0v121h133l199 1276h-137v123h415l6 -54q2 -24 4.5 -32.5t12.5 -36.5l268 -883l338 883l16 61l13 62h422v-123h-144l121 -1276h129v-121h-618v121h143l-55 864l-64 -137l-129 -318q-88 -221 -125 -339.5t-53 -190.5h-182l-6 49l-19 72l-268 854l-113 -854h139v-121 h-446z" />
<glyph unicode="N" horiz-adv-x="1470" d="M75 0v121h141v1276h-141v123h375l706 -969v846h-145v123h469v-123h-143v-1311v-41l6 -45h-213l-21 41l-37 53l-684 946v-919h142v-121h-455z" />
<glyph unicode="O" d="M69 748q0 57 15.5 183t119 280.5t243.5 223t214 91.5q39 10 74.5 17t58.5 11l117 7q170 0 332.5 -60.5t269 -188.5t157 -281.5t50.5 -301.5q0 -115 -43 -257t-182.5 -285.5t-292.5 -188.5q-70 -21 -148 -33t-151 -12q-162 0 -311.5 44t-270.5 147.5t-189 271.5 q-30 84 -46.5 167t-16.5 165zM391 862q0 -170 62 -349t154.5 -264t178.5 -122q80 -31 157 -31q37 0 68 4t84 19q88 24 162 102t103.5 165t37.5 149l8 122q0 152 -47 300.5t-131 251t-186.5 150.5t-194.5 48h-24l-35 -6l-37 -6l-59 -17q-129 -53 -199 -157q-62 -99 -82 -199 t-20 -160z" />
<glyph unicode="P" horiz-adv-x="1363" d="M79 0v121h141v1276h-141v123h588q284 0 418.5 -80t205 -214t70.5 -280q0 -170 -92 -318.5t-272 -197.5q-84 -20 -188.5 -32.5t-221.5 -12.5h-53v-264h153v-121h-608zM534 811q0 -141 8 -189.5t53 -83t121 -34.5l45 2q14 2 30.5 6t45.5 16q55 19 99 78.5t61.5 125 t21.5 104.5l4 75q0 101 -26 189q-25 92 -91 166q-61 77 -154 104t-218 27v-586z" />
<glyph unicode="Q" d="M63 748q0 57 15.5 183t119 280.5t243.5 223t206.5 88t136.5 29.5l123 9q170 0 331.5 -61.5t268 -188.5t157 -280.5t50.5 -301.5q0 -115 -41 -257t-179.5 -280.5t-258 -181.5t-164.5 -43q57 -6 137 -37l125 -51q104 -31 177 -43t179 -12l-229 -254q-60 0 -84.5 4t-65.5 18 l-92 35l-158 70q-94 41 -175 62.5t-148 21.5q-74 0 -140.5 -20.5t-150.5 -67.5l-127 114q66 13 168 64t176 109q-100 18 -179 56t-186.5 125t-171.5 255q-30 84 -46.5 167t-16.5 165zM385 862q0 -170 62 -349t154.5 -264t178.5 -122q80 -31 157 -31q37 0 68 4t84 19 q88 24 161 99t105 167q29 90 37 150l8 122q0 152 -47 300.5t-131 251t-186.5 150.5t-194.5 48h-24l-25 -4q-33 0 -61 -10l-45 -15q-129 -53 -199 -157q-62 -99 -82 -199t-20 -160z" />
<glyph unicode="R" horiz-adv-x="1441" d="M75 0v121h141v1276h-141v123h676q92 0 173 -12.5t163 -41.5q157 -49 235 -155.5t99 -188.5q10 -37 16 -75.5t6 -81.5q0 -78 -31.5 -194t-134 -202t-248.5 -123l242 -325h125v-121h-424l-18 35q-7 18 -37 55l-109 141l-139 181h-139v-291h139v-121h-594zM530 545 q198 0 283 22.5t161 84t102.5 147.5t26.5 157q0 56 -3 77.5t-12 55t-28.5 71.5t-50.5 83q-57 84 -166 121q-55 16 -122.5 24.5t-164.5 8.5h-26v-852z" />
<glyph unicode="S" horiz-adv-x="1263" d="M55 201l201 270q141 -152 263 -232.5t259 -80.5q39 0 67.5 5t73.5 29.5t76 77t31 111.5q0 33 -19.5 87t-79 88t-172.5 69l-149 43q-217 65 -306 148t-102.5 158t-13.5 118q0 100 35 185t112.5 150.5t172.5 100.5q49 16 94 24.5t100 8.5q102 0 186 -24t128 -46.5t61 -38.5 l63 86l101 -74l-191 -272q-190 209 -403 209l-35 -2l-47 -4q-27 0 -68 -29q-39 -23 -61.5 -60.5t-22.5 -78.5q0 -43 15 -72q24 -68 88 -106q30 -17 69 -33q27 -10 90 -33l177 -55q137 -41 243 -117q101 -68 125.5 -134.5t30.5 -107.5l6 -65q0 -154 -102.5 -297.5 t-239.5 -198.5t-283 -55q-122 0 -281 67.5t-292 180.5z" />
<glyph unicode="T" horiz-adv-x="1212" d="M26 1141l80 436h106l-10 -57h866l-10 57h105l80 -436h-107q-20 88 -47 141t-77 72.5t-105 25.5l-115 4v-1263h166v-121h-647v121h166v1263l-99 -2q-55 0 -110 -24q-56 -19 -83.5 -70t-49.5 -147h-109z" />
<glyph unicode="U" horiz-adv-x="1568" d="M75 1397v123h455v-967q0 -147 22 -231q21 -89 97.5 -130.5t170.5 -41.5l86 6q29 6 89.5 43t87 120.5t26.5 210.5v867h-141v123h455v-1399h125v-121h-435l-10 57l-6 56q-100 -72 -211 -115t-213 -43q-113 0 -243 60.5t-172 179t-42 319.5v883h-141z" />
<glyph unicode="V" horiz-adv-x="1503" d="M53 1397v123h547v-123h-88l73 -207q109 170 204 249t208 79q68 0 164 -31l39 -12l47 -13l47 -4q47 0 90 15q21 6 45.5 18t46.5 29l64 -68l-78 -123q-27 -47 -57 -133l-394 -1075l-18 -62l-14 -59h-322l-10 41q-2 12 -7 31.5t-16 48.5l-456 1276h-115zM628 1055l263 -774 l346 952l-64 2q-26 4 -33.5 5t-39.5 11l-58 17l-71 16l-60 6q-65 0 -113 -22q-51 -19 -84.5 -61t-50.5 -70z" />
<glyph unicode="W" horiz-adv-x="2164" d="M49 1397v123h563v-123h-94l362 -1100l191 549l-195 551h-118v123h563v-123h-92l55 -170q106 166 187 229.5t196 63.5q72 0 180 -25l45 -10q53 -12 92 -12q70 0 160 57l66 -68l-54 -90q-26 -47 -49 -102l-395 -1102l-29 -80l-24 -88h-301l-11 47q-2 16 -6 30.5t-16 43.5 l-158 452l-166 -452l-34 -121h-318l-6 45q-2 14 -6 30.5t-17 45.5l-452 1276h-119zM1335 1077l250 -764l326 940l-27 -2l-31 -2l-35 4l-57 19l-78 22q-39 9 -56 10t-28 1q-57 0 -103 -19.5t-83 -58.5q-21 -25 -29 -37q-16 -29 -24 -43q-19 -37 -25 -70z" />
<glyph unicode="X" horiz-adv-x="1462" d="M38 0v121h115l417 665l-362 611h-121v123h619v-123h-125l270 -457l264 457h-127v123h453v-123h-115l-383 -611l393 -665h142v-121h-641v121h127l-299 508l-301 -508h129v-121h-455z" />
<glyph unicode="Y" horiz-adv-x="1466" d="M49 1397v123h616v-123h-145l334 -619l325 619h-147v123h447v-123h-105l-584 -1161l25 2l29 2q39 0 94 -18.5t94 -18.5q33 0 59 14l41 33l35 49l64 -31q-31 -94 -88.5 -181t-100.5 -99l-65 -11q-45 0 -144 25q-43 10 -61 14q-51 13 -72 13l-37 -4l-43 -13q-20 -6 -65 -45 l-90 64l211 409l-512 957h-115z" />
<glyph unicode="Z" horiz-adv-x="1148" d="M28 190l33 33l45 53l807 1029h-285q-201 0 -272.5 -34t-120.5 -206h-111l66 514h112l-8 -59h631h27h37l53 8l116 -221l-110 -127l-729 -932h356q182 0 258 39t109 200h108l-61 -557h-123l8 70h-733q-37 0 -59 -4l-43 -8z" />
<glyph unicode="[" horiz-adv-x="630" d="M98 -309v1829h477v-60h-260v-1704h260v-65h-477z" />
<glyph unicode="\" horiz-adv-x="1435" d="M61 1511l162 127l1210 -1630l-164 -127z" />
<glyph unicode="]" horiz-adv-x="630" d="M94 -242h258v1704h-258v58h477v-1827h-477v65z" />
<glyph unicode="^" horiz-adv-x="798" d="M61 1309l352 211l355 -211l-123 -103l-222 148l-239 -148z" />
<glyph unicode="_" horiz-adv-x="1050" d="M-36 -186h1178v-80h-1178v80z" />
<glyph unicode="`" horiz-adv-x="512" d="M90 1391l84 159l330 -241l-62 -113z" />
<glyph unicode="a" horiz-adv-x="1144" d="M69 289q0 108 67.5 214.5t211 142.5t319.5 36h68q0 35 -3.5 66.5t-19.5 70.5q-18 60 -74 80l-67 10q-70 0 -145.5 -49t-141.5 -133l-98 31l100 307l102 -29l-18 -53q141 82 303 82q66 0 112 -13.5t107.5 -61.5t87 -131t25.5 -191v-566h119v-102h-367q-20 49 -31 104 q-157 -145 -313 -145l-76 6q-49 6 -120.5 52t-116.5 130q-31 66 -31 142zM352 344q0 -27 9 -60.5t38.5 -68.5t68.5 -53q31 -10 64 -15q61 0 110 35q68 49 83.5 145.5t15.5 231.5q-174 0 -230.5 -13.5t-99.5 -56.5q-59 -55 -59 -145z" />
<glyph unicode="b" horiz-adv-x="1228" d="M73 1268v116l508 162v-121l-117 -34v-443l10 4q86 54 166 82.5t154 28.5q43 0 81 -8t91 -33q92 -37 152.5 -128t74.5 -165l19 -108l4 -72q0 -115 -33 -213t-119 -190.5t-210 -139.5t-244 -47q-23 0 -55.5 2t-95 9t-116.5 42q-39 25 -170 129q13 37 13 135v1027zM464 408 q0 -119 12.5 -177.5t59.5 -92.5t80 -44l69 -8q50 0 99 20q53 19 90 73t53 108q12 53 12 114q0 105 -28.5 223.5t-75.5 168.5q-41 47 -92.5 70.5t-91.5 23.5l-37 -6q-31 -4 -43 -11l-41 -20q-51 -31 -66 -47v-395z" />
<glyph unicode="c" horiz-adv-x="1050" d="M63 492q0 96 27.5 186t98.5 183t195.5 148.5t253.5 55.5h33l78 -12q57 -6 144.5 -51.5t177.5 -141.5l-222 -215q-30 98 -85.5 180t-114.5 99l-86 14q-41 0 -74 -13.5t-64 -43.5q-49 -47 -73 -131q-10 -39 -16.5 -82t-6.5 -88q0 -43 6 -68q13 -92 76.5 -189.5 t159.5 -144.5q47 -24 115 -24q94 0 141 32l57 39l70 62l88 -80q-105 -125 -223.5 -185.5t-247.5 -60.5q-47 0 -131 14q-90 13 -183.5 81.5t-146.5 193.5q-47 125 -47 242z" />
<glyph unicode="d" horiz-adv-x="1271" d="M63 426q0 154 54.5 299t193.5 242.5t299 97.5q37 0 57.5 -2t57 -10.5t63.5 -15.5t70 -27l8 -4v297l-115 -35v116l508 162v-121l-113 -34v-1289h113v-102h-373l-14 39q-6 33 -10 37q-103 -58 -187 -86q-80 -31 -163 -31q-87 0 -197.5 55.5t-181 174t-70.5 237.5zM362 510 l12 -92q11 -76 63 -153t111 -107q64 -27 113 -27q70 0 129 39t76 80v555q-4 14 -12.5 28.5t-22.5 32.5q-25 31 -65.5 56.5t-116.5 25.5q-43 0 -84 -12l-29 -14l-33 -21q-71 -55 -106 -159.5t-35 -198.5v-33z" />
<glyph unicode="e" horiz-adv-x="1099" d="M65 502q0 184 96.5 319t213 189.5t233.5 54.5l100 -8q39 0 79 -18.5t89 -53.5q90 -61 129 -145l53 -113l21 -65l-701 -267q49 -112 137.5 -177.5t180.5 -65.5q80 0 149.5 31.5t151.5 119.5l84 -70q-103 -131 -239 -202.5t-265 -71.5l-35 2l-90 10q-35 0 -79 20.5 t-95 57.5q-98 70 -156 201q-28 67 -42.5 127.5t-14.5 124.5zM327 637q0 -68 14 -117l455 172l-14 56q-6 24 -27 49q-90 129 -194 129q-50 0 -93 -16.5t-75.5 -61.5t-51.5 -96q-6 -27 -10 -53.5t-4 -61.5z" />
<glyph unicode="f" horiz-adv-x="638" d="M24 889l53 151h121q-76 107 -76 203q0 47 24.5 114.5t98.5 124t138.5 71t105.5 14.5q72 0 142.5 -24.5t129.5 -82.5l-166 -155q-30 59 -66 94t-83 35q-29 0 -54.5 -13.5t-43 -45.5t-17.5 -79q0 -34 3 -46.5t10.5 -33t19.5 -42.5q22 -44 82 -91q59 -43 129 -43h131 l-53 -151h-193v-787h135v-102h-526v102h113v787h-158z" />
<glyph unicode="g" horiz-adv-x="1122" d="M38 53q82 33 148.5 79t130.5 138q-132 74 -185 156t-53 209q0 98 39 184q37 90 119 149.5t154.5 82t152.5 22.5q53 0 119 -12q73 -10 80 -12q38 -13 57 -17q16 68 58 125t104 57h28l66 -4q33 0 53 -10l-63 -192l-43 20l-39 10q-15 0 -33 -10q-21 -6 -21 -37q0 -20 17 -43 l31 -39l26 -32l29 -54q18 -37 30.5 -87t12.5 -95q0 -100 -55.5 -198.5t-154.5 -143.5t-222 -61h-78h-31l-51 4l-6 -23l-19 -35l-24 -32l-23 -23l105 12l125 6q55 0 104 -6t103 -20q92 -25 148 -87.5t56 -150.5q0 -28 -13 -82.5t-78.5 -110t-146.5 -83t-173 -27.5 q-70 0 -125.5 13.5t-94 46t-57 72.5t-18.5 87t26.5 84t92.5 84h-129q-62 0 -136 -20l-49 -15zM341 727q0 -86 26.5 -172t76.5 -141q63 -76 139 -76l57 8q21 4 38 13.5t38 27.5q33 29 53 68q6 12 12.5 30.5t8.5 30.5l4 57q0 74 -24.5 155t-62.5 134t-89.5 77t-102.5 24 q-55 0 -97 -42t-67 -114q-6 -27 -8 -39t-2 -41zM532 -131q0 -39 14 -68q22 -47 66 -75.5t85 -28.5q43 0 68 9t47 36q12 25 12 53q0 23 -16 61t-94 72q-72 29 -150 39q-32 -53 -32 -98z" />
<glyph unicode="h" horiz-adv-x="1228" d="M79 0v102h113v1201l-113 -35v116l508 162v-121l-117 -34v-471q96 65 186.5 105t163.5 40q74 0 147 -38t105 -132q17 -49 25 -102.5t8 -128.5v-562h113v-102h-508v102h117v467q0 60 -4.5 99t-16.5 75q-18 64 -55 88q-31 25 -80 25q-29 0 -54.5 -7t-54 -23.5t-51.5 -34.5 l-41 -41v-648h117v-102h-508z" />
<glyph unicode="i" horiz-adv-x="620" d="M79 0v102h113v727l-113 -28v121l401 127l-8 -58l-2 -39v-850h117v-102h-508zM159 1300q0 127 123 164l30 4q60 0 108 -42t48 -117l-6 -64q-6 -47 -88 -86q-16 -6 -26.5 -8t-37.5 -2l-41 4q-18 2 -65 33q-21 14 -33 42.5t-12 71.5z" />
<glyph unicode="j" horiz-adv-x="614" d="M12 -248q109 31 141.5 95.5t32.5 185.5v796l-113 -28v121l402 127l-8 -58l-2 -39v-831q0 -150 -41 -252q-37 -107 -147.5 -167t-248.5 -60zM155 1292q0 58 30 102t93 62l31 4q59 0 107.5 -42t48.5 -118v-24q-9 -86 -66 -110.5t-96 -24.5q-41 0 -94.5 34.5t-53.5 116.5z " />
<glyph unicode="k" horiz-adv-x="1193" d="M79 0v102h113v1201l-113 -35v116l508 162v-121l-117 -34v-439l10 9q64 49 140 77q30 11 71 19t74 8q82 0 162 -33q80 -24 131 -76q47 -43 72 -112q20 -68 20 -117q0 -51 -13.5 -101.5t-47.5 -93.5q-35 -55 -96.5 -94t-139.5 -69l223 -267h119v-102h-432q-25 49 -70 100 l-223 279v-277h117v-102h-508zM470 428l223 119l82 -90q68 39 95.5 88t27.5 110q0 148 -94 192t-141 44q-101 0 -193 -68v-395z" />
<glyph unicode="l" horiz-adv-x="620" d="M77 0v102h113v1201l-113 -35v116l508 162v-121l-117 -34v-1289h117v-102h-508z" />
<glyph unicode="m" horiz-adv-x="1808" d="M73 0v102h113v727l-113 -28v121l401 127l-8 -58l-2 -39v-28l4 4q45 35 83 57.5t83 44.5q76 35 152 35q61 0 133 -31q47 -18 80 -51q18 -18 38.5 -45t28.5 -39q86 74 176.5 120t171.5 46l68 -6q25 -6 85 -35t102 -108.5t42 -258.5v-555h113v-102h-508v102h115v473v29 q0 76 -11.5 133.5t-51.5 93t-111 35.5q-29 0 -74 -14q-49 -12 -96 -78v-672h112v-102h-505v102h114v473v46q0 71 -11 123.5t-51 87t-110 34.5q-28 0 -57 -10q-35 -6 -62 -29q-26 -18 -53 -53v-672h117v-102h-508z" />
<glyph unicode="n" horiz-adv-x="1220" d="M77 0v102h113v727l-113 -28v121l401 127l-8 -58l-2 -39v-32q96 65 186.5 105t163.5 40q74 0 147 -38t105 -132q17 -49 25 -102.5t8 -128.5v-562h113v-102h-508v102h117v467q0 60 -4.5 99t-16.5 75q-18 64 -55 88q-31 25 -80 25q-29 0 -54.5 -7t-54 -23.5t-51.5 -34.5 l-41 -41v-648h117v-102h-508z" />
<glyph unicode="o" horiz-adv-x="1236" d="M63 563q12 139 77.5 247t183.5 170t226 81l54 4q116 0 255.5 -47t219.5 -136t110 -184q17 -51 25 -93t8 -95q0 -66 -8 -100l-29 -115q-18 -82 -104 -166t-213 -127t-215 -43q-113 0 -215.5 32t-194.5 108.5t-139 203.5q-41 129 -41 260zM342 629q0 -135 48 -275.5 t109 -193.5q62 -45 103 -58q47 -10 82 -10q53 0 96 14q71 31 106 97q37 61 43 108l6 76q0 133 -44 276.5t-106.5 192.5t-105.5 61.5t-81 12.5q-58 0 -117.5 -25.5t-90 -82t-46.5 -150.5z" />
<glyph unicode="p" horiz-adv-x="1267" d="M79 -303h113v1132l-113 -28v121l401 127l-8 -45l-2 -41l10 4q43 20 78 35.5t90 35.5q90 27 166 27q90 0 192.5 -50t170 -173t86.5 -267q0 -139 -48.5 -278t-146.5 -211t-182 -98.5t-158 -26.5q-65 0 -124.5 13.5t-127.5 43.5l-6 2v-323h137v-105h-528v105zM470 360 q0 -94 14.5 -149t76 -94t128.5 -39q47 0 111.5 24.5t105.5 89t53.5 131t12.5 126.5q0 112 -32 209.5t-86 148.5t-101 69.5t-92 18.5q-31 0 -68 -10.5t-70 -34.5l-53 -39v-451z" />
<glyph unicode="q" horiz-adv-x="1239" d="M77 463q0 168 70.5 312.5t220 217t276.5 72.5q148 0 287 -76l197 60l-9 -56l-2 -41v-1255h115v-105h-508v105h113v364q-82 -49 -158 -75q-49 -17 -85 -22t-71 -5q-38 0 -56.5 2t-55.5 14q-53 13 -140.5 60t-142.5 172q-51 129 -51 256zM347 565q0 -71 10.5 -126.5 t36.5 -116.5q50 -109 125 -146q78 -33 127 -33q99 0 191 80v402v49q0 100 -19.5 154.5t-79 89t-120.5 34.5q-68 0 -137.5 -45t-101.5 -144t-32 -198z" />
<glyph unicode="r" horiz-adv-x="819" d="M18 733l166 299q78 -12 123 -44t94 -97q16 37 42 66.5t57.5 53t88.5 23.5q43 0 68 -8q14 -2 31.5 -8t38.5 -14l24 61l96 -35l-110 -317q-19 10 -35 17t-37 13q-37 13 -67 13q-31 0 -62 -18.5t-43 -62.5t-12 -112v-61v-400h139v-102h-530v102h112v560q0 28 -18 47 q-29 32 -43 39l-39 -72z" />
<glyph unicode="s" horiz-adv-x="958" d="M47 127l143 219q107 -110 215.5 -179t204.5 -69q60 0 90.5 43t30.5 82q0 19 -13.5 50.5t-61.5 59t-138 60.5l-59 23q-150 49 -215.5 98t-75.5 111l-8 92q0 78 31.5 149.5t91 116.5t127 63.5t145.5 18.5t144.5 -13.5t125.5 -39.5l45 -27l58 -37l-142 -198 q-73 61 -166.5 115.5t-158.5 54.5q-39 0 -62 -17q-26 -12 -37 -35q-12 -16 -8 -49q10 -65 72 -92l123 -43l59 -16q121 -37 199 -81t106.5 -118t28.5 -131q0 -113 -64.5 -204t-166 -133t-201.5 -42q-115 0 -228.5 37t-234.5 131z" />
<glyph unicode="t" horiz-adv-x="761" d="M92 870v117q123 37 179.5 93.5t123.5 203.5l98 -20l-8 -107l-2 -108v-21l213 -2l-41 -156h-172v-508q0 -96 6 -144t38 -61.5t57 -13.5q26 0 55 15q26 10 59 37l62 -78q-62 -68 -154 -113t-174 -45q-31 0 -59.5 6t-59.5 23q-55 24 -84 104q-24 80 -24 209v569h-113z" />
<glyph unicode="u" horiz-adv-x="1236" d="M79 801v121l401 127l-8 -58l-2 -39v-528q0 -113 9.5 -162t54.5 -82q45 -28 94 -28l33 4l43 12q22 8 62 35.5t63 60.5v565l-113 -28v121l403 127l-6 -45l-2 -52v-850h111v-102h-385l-6 45l-2 57q-95 -65 -192 -104t-177 -39q-68 0 -142.5 37t-100 111.5t-25.5 191.5v49 v481z" />
<glyph unicode="v" horiz-adv-x="1120" d="M40 862l367 197l39 -109l24 -53q72 78 135.5 112.5t124.5 34.5l60 -6q30 -2 79 -18l29 -6l68 -8q26 0 50.5 7t63.5 34l74 -62l-33 -49l-34 -70l-322 -757l-20 -60l-13 -49h-180l-18 55q-5 19 -11 35t-24 51l-316 670l-92 -51zM505 821l209 -485l188 457l-39 2l-35 8 l-102 37q-61 22 -98 26q-51 0 -123 -45z" />
<glyph unicode="w" horiz-adv-x="1640" d="M49 862l367 197l20 -68l25 -45l262 -610l37 90l69 176l-96 209l-92 -51l-53 102l366 197l31 -88l31 -66q75 80 130.5 112t112.5 32q62 0 142 -29l30 -8l54 -11q28 0 59 10.5t64 35.5l75 -64l-2 -6l-37 -64l-24 -47l-307 -764l-21 -47l-12 -55h-178l-21 55q-6 23 -12 38.5 t-23 47.5l-129 279l-143 -316l-23 -59l-10 -45h-180l-16 55q-11 35 -39 86l-314 670l-92 -51zM1050 825l205 -471l183 441l-50 2l-41 6l-100 33q-18 8 -47 17t-47 11q-45 0 -103 -39z" />
<glyph unicode="x" horiz-adv-x="1148" d="M57 0v102h111l268 461l-215 359h-94v104h532v-104h-102l155 -260l152 260h-98v104h358v-104h-98l-234 -396l250 -424h107v-102h-551v102h112l-194 326l-189 -326h111v-102h-381z" />
<glyph unicode="y" horiz-adv-x="1134" d="M32 862l367 197l22 -68l43 -94q70 76 135 115q62 32 117 32q37 0 78 -10l80 -16l28 -6l58 -6q26 0 52 7t60 34l74 -62l-31 -51l-28 -51l-426 -996q-33 -82 -63.5 -140t-57.5 -89q-47 -59 -117 -72l-92 -10q-61 0 -141 25l49 249q45 -22 104 -22q47 0 88 13.5t65.5 43 t37.5 58.5l22 57l-379 811l-92 -51zM499 821l209 -485l186 457l-39 2l-35 8l-102 37q-61 22 -96 26q-51 0 -123 -45z" />
<glyph unicode="z" horiz-adv-x="882" d="M45 170l37 35l43 47l479 577l-65 11l-68 4q-82 0 -144.5 -28t-115.5 -109l-111 10l131 366h115l-20 -57h471l86 -149l-33 -29l-31 -33l-491 -594l61 -8h51q107 0 200 36t167 130l100 -21l-102 -419h-113l17 61h-469l-64 -2l-43 -6z" />
<glyph unicode="{" horiz-adv-x="1042" d="M71 477v105q184 24 266 91.5t82 252.5v147q0 144 25.5 233t110.5 139t181.5 70.5t194.5 20.5v-78q-176 0 -254 -86q-71 -88 -71 -274v-133q0 -213 -87.5 -300t-324.5 -130l-29 -9q236 0 334 -103.5t98 -348.5v-103q0 -139 23.5 -208.5t89.5 -106.5t119 -50.5t90 -13.5 v-77q-64 0 -118 6t-114 22q-110 27 -168.5 87.5t-82 125t-23.5 185.5v43v122v37q0 97 -23 158q-18 68 -77 102q-54 35 -119 52q-14 4 -53 11t-70 11z" />
<glyph unicode="|" horiz-adv-x="425" d="M174 -164v1829h98v-1829h-98z" />
<glyph unicode="}" horiz-adv-x="1056" d="M131 1458v78q90 0 182 -18.5t162 -55.5q109 -63 139.5 -160.5t30.5 -228.5v-147q0 -181 80 -250.5t268 -93.5v-105q-74 -6 -127 -20q-57 -13 -118.5 -54t-80 -113.5t-18.5 -183.5v-122v-43q0 -101 -16 -164q-15 -68 -77.5 -132.5t-179 -97t-235.5 -32.5v77q45 0 85 7.5 t115 49.5t99.5 114.5t24.5 207.5v103q0 245 97 348.5t335 103.5l-29 9q-233 40 -321 126.5t-88 303.5v133q0 184 -73 272t-255 88z" />
<glyph unicode="~" horiz-adv-x="815" d="M61 1309q16 16 48 38.5t50 32.5q49 23 99 23l55 -6l65 -19l35 -14q56 -21 92 -21q76 0 160 70l123 -102q-63 -66 -126.5 -98.5t-131.5 -32.5h-45q-23 6 -36 9t-33.5 8t-45.5 13l-37 11l-67 10q-27 0 -47 -10l-43 -21z" />
<glyph unicode="&#xa8;" horiz-adv-x="1024" />
<glyph unicode="&#xa9;" horiz-adv-x="1640" d="M12 772q0 109 28 211t81 193q111 186 295 292q189 109 403 109q162 0 311 -61q150 -64 261 -175q109 -109 174 -258q63 -144 63 -311q0 -213 -108 -403q-111 -187 -297 -293q-89 -52 -192 -80.5t-212 -28.5q-108 0 -208.5 27.5t-194.5 81.5q-185 107 -295 293 q-54 94 -81.5 194t-27.5 209zM143 772q0 -180 93 -338q89 -154 245 -244q84 -46 166.5 -68t171.5 -22q179 0 338 90q75 42 138 104.5t110 139.5q90 160 90 338q0 141 -51 260q-51 123 -146.5 218.5t-218.5 146.5q-119 51 -260 51q-178 0 -338 -90q-77 -46 -138 -107 t-107 -141q-93 -156 -93 -338zM403 760q0 163 65.5 271.5t168.5 160.5q99 51 219 51q104 0 178 -39q77 -36 129 -106q52 -74 66 -158h-125q-20 89 -94 131q-71 41 -170 41q-148 -3 -226 -100q-77 -97 -77 -248q3 -94 41 -166q38 -69 108 -109q72 -40 170 -40q100 0 162 45 q65 45 86 135h125q-12 -95 -68 -166q-54 -72 -135 -109q-82 -39 -170 -39q-119 0 -217 52q-101 51 -164 153q-61 97 -72 240z" />
<glyph unicode="&#xad;" horiz-adv-x="696" d="M79 410v155h596v-155h-596z" />
<glyph unicode="&#xae;" horiz-adv-x="1640" d="M12 772q0 109 28 211t81 193q111 186 295 292q189 109 403 109q162 0 311 -61q150 -64 261 -175q109 -109 174 -258q63 -144 63 -311q0 -213 -108 -403q-111 -187 -297 -293q-89 -52 -192 -80.5t-212 -28.5q-108 0 -208.5 27.5t-194.5 81.5q-185 107 -295 293 q-54 94 -81.5 194t-27.5 209zM143 772q0 -180 93 -338q89 -154 245 -244q84 -46 166.5 -68t171.5 -22q179 0 338 90q75 42 138 104.5t110 139.5q90 160 90 338q0 141 -51 260q-51 123 -146.5 218.5t-218.5 146.5q-119 51 -260 51q-178 0 -338 -90q-77 -46 -138 -107 t-107 -141q-93 -156 -93 -338zM508 311v910h391q295 0 301 -238q0 -123 -70 -186q-69 -66 -169 -66l227 -420h-148l-231 420h-168v-420h-133zM641 864h270q160 0 160 105q0 118 -178 118h-252v-223z" />
<glyph unicode="&#xb4;" horiz-adv-x="1024" />
<glyph unicode="&#xb6;" horiz-adv-x="1024" d="M93 1086q0 157 107.5 253t285.5 96h443v-70h-127v-1365h-82v1365h-166v-1365h-84v738q-174 8 -275.5 102.5t-101.5 245.5z" />
<glyph unicode="&#xbc;" horiz-adv-x="1298" />
<glyph unicode="&#xbd;" horiz-adv-x="1320" />
<glyph unicode="&#xbe;" horiz-adv-x="1288" />
<glyph unicode="&#xc0;" horiz-adv-x="1536" d="M40 0v121h123l461 1276l12 51l10 53h344q0 -26 4 -43q0 -26 17 -61l422 -1276h114v-121h-569v121h98l-86 285h-530l-94 -285h129v-121h-455zM505 547h438l-209 659zM642 1788l84 158l330 -240l-62 -113z" />
<glyph unicode="&#xc1;" horiz-adv-x="1536" d="M40 0v121h123l461 1276l12 51l10 53h344q0 -26 4 -43q0 -26 17 -61l422 -1276h114v-121h-569v121h98l-86 285h-530l-94 -285h129v-121h-455zM505 547h438l-209 659zM603 1708l330 240l84 -158l-352 -195z" />
<glyph unicode="&#xc2;" horiz-adv-x="1536" d="M49 0v121h123l459 1276l14 57l10 47h342l6 -51l15 -53l422 -1276h116v-121h-569v121h98l-88 285h-530l-92 -285h129v-121h-455zM479 1698l350 213l359 -213l-125 -101l-223 146l-236 -146zM512 547h440l-209 659z" />
<glyph unicode="&#xc3;" horiz-adv-x="1536" d="M49 0v121h123l459 1276l14 57l10 47h342l6 -51l15 -53l422 -1276h116v-121h-569v121h98l-88 285h-530l-92 -285h129v-121h-455zM434 1733q49 49 99.5 72.5t95.5 23.5q49 0 120 -27l37 -14q56 -21 92 -21q78 0 158 72l123 -104q-61 -68 -124.5 -99.5t-129.5 -31.5 q-70 0 -162 32l-37 9q-43 12 -67 12q-19 0 -41 -10l-51 -21zM512 547h440l-209 659z" />
<glyph unicode="&#xc8;" horiz-adv-x="1200" d="M69 0v121h141v1276h-141v123h866h35h74l41 8l131 -295l-96 -45q-95 139 -196 174t-298 35h-102v-445h471v131h125v-421h-125v151h-471v-692h37q235 0 346.5 52t165.5 120l67 88l16 35l97 -47l-180 -387l-50 14l-75 4h-879zM409 1788l84 158l332 -240l-64 -113z" />
<glyph unicode="&#xc9;" horiz-adv-x="1200" d="M75 0v121h141v1276h-141v123h866h35h74l41 8l131 -295l-96 -45q-95 139 -196 174t-300 35h-100v-445h471v131h125v-421h-125v151h-471v-692h37q235 0 345.5 52t166.5 122l65 84l18 37l97 -47l-180 -387l-50 14l-77 4h-877zM401 1706l329 240l86 -158l-354 -195z" />
<glyph unicode="&#xca;" horiz-adv-x="1200" d="M75 0v121h141v1276h-141v123h866h35h74l41 8l131 -295l-96 -45q-95 139 -196 174t-300 35h-100v-445h471v131h125v-421h-125v151h-471v-692h37q235 0 345.5 52t166.5 122l65 84l18 37l97 -47l-180 -387l-50 14l-77 4h-877zM268 1696l352 213l354 -213l-125 -101l-221 146 l-238 -146z" />
<glyph unicode="&#xcc;" horiz-adv-x="704" d="M75 0v121h141v1276h-141v123h594v-123h-139v-1276h139v-121h-594zM181 1788l87 158l329 -240l-61 -113z" />
<glyph unicode="&#xcd;" horiz-adv-x="704" d="M75 0v121h141v1276h-141v123h594v-123h-139v-1276h139v-121h-594zM122 1704l332 240l84 -158l-354 -195z" />
<glyph unicode="&#xd2;" d="M69 752q0 49 6 98t10 80q17 129 121.5 282.5t239.5 220t217 93.5l133 28l117 7q170 0 332.5 -60.5t269 -188.5t157 -283t50.5 -304q0 -121 -44 -260t-183.5 -280.5t-292.5 -186.5q-70 -21 -148 -33t-151 -12q-162 0 -311.5 44t-270.5 147.5t-189 271.5q-30 86 -46.5 169 t-16.5 167zM391 864q0 -168 65.5 -349t155.5 -265t174 -123q80 -31 157 -31q37 0 68 4t84 19q88 24 163 101t111 196q19 59 29 117.5t10 121.5q0 156 -51 306.5t-133 250t-183.5 147.5t-191.5 48h-24l-39 -8l-53 -6l-41 -15q-131 -49 -196 -155.5t-87 -204.5 q-18 -96 -18 -154zM716 1825l86 157l328 -239l-62 -113z" />
<glyph unicode="&#xd3;" d="M69 748q0 47 6 97t10 83q17 131 120.5 282.5t246.5 227.5q135 65 209 88q35 10 74 17t61 11l117 7q170 0 331.5 -61.5t268 -188.5t157 -280.5t50.5 -301.5q0 -115 -43 -257t-182.5 -285.5t-292.5 -188.5q-70 -21 -148 -33t-151 -12q-162 0 -309.5 44t-271.5 147.5 t-190 271.5q-30 84 -46.5 167t-16.5 165zM391 862q0 -170 62 -349t154.5 -264t178.5 -122q80 -31 157 -31q37 0 68 4t84 19q88 24 161 99t105 167q29 90 37 150l8 122q0 152 -47 300.5t-131 251t-186.5 150.5t-194.5 48h-24l-35 -6l-37 -6l-59 -17q-131 -49 -196 -155.5 t-87 -204.5q-18 -96 -18 -156zM671 1743l330 239l84 -157l-352 -195z" />
<glyph unicode="&#xd4;" d="M69 752q0 49 6 98t10 80q17 129 121.5 282.5t239.5 220t217 93.5l133 28l117 7q170 0 332.5 -60.5t269 -188.5t157 -283t50.5 -304q0 -121 -44 -260t-183.5 -280.5t-292.5 -186.5q-70 -21 -148 -33t-151 -12q-162 0 -311.5 44t-270.5 147.5t-189 271.5q-30 86 -46.5 169 t-16.5 167zM391 864q0 -168 65.5 -349t155.5 -265t174 -123q80 -31 157 -31q37 0 68 4t84 19q88 24 163 101t111 196q19 59 29 117.5t10 121.5q0 156 -51 306.5t-133 250t-183.5 147.5t-191.5 48h-24l-39 -8l-53 -6l-41 -15q-131 -49 -196 -155.5t-87 -204.5 q-18 -96 -18 -154zM538 1722l350 211l357 -211l-123 -100l-224 143l-237 -143z" />
<glyph unicode="&#xd5;" d="M69 748q0 57 15.5 183t119 280.5t243.5 223t214 91.5q35 10 74 17t61 11l117 7q170 0 331.5 -61.5t268 -188.5t157 -280.5t50.5 -301.5q0 -115 -43 -257t-182.5 -285.5t-292.5 -188.5q-70 -21 -148 -33t-151 -12q-162 0 -309.5 44t-271.5 147.5t-190 271.5 q-30 84 -46.5 167t-16.5 165zM391 862q0 -170 62 -349t154.5 -264t178.5 -122q80 -31 157 -31q37 0 68 4t84 19q88 24 161 99t105 167q29 90 37 150l8 122q0 152 -47 300.5t-131 251t-186.5 150.5t-194.5 48h-24l-35 -6l-37 -6l-59 -17q-129 -53 -199 -157q-62 -99 -82 -199 t-20 -160zM522 1761q98 99 194 99q49 0 121 -27l37 -14q61 -21 94 -21q74 0 158 72l121 -107q-62 -67 -125.5 -97t-126.5 -30h-45q-23 6 -37.5 9.5t-35 8.5t-44.5 13l-37 10l-68 11q-30 0 -92 -31z" />
<glyph unicode="&#xd9;" horiz-adv-x="1568" d="M75 1397v123h455v-967q0 -147 22 -231q21 -89 97.5 -130.5t170.5 -41.5l86 6q29 6 89.5 43t87 120.5t26.5 210.5v867h-141v123h455v-1399h125v-121h-435l-10 57l-6 56q-100 -72 -211 -115t-213 -43q-113 0 -243 60.5t-172 179t-42 319.5v883h-141zM595 1788l84 158 l332 -240l-62 -113z" />
<glyph unicode="&#xda;" horiz-adv-x="1568" d="M75 1397v123h455v-967q0 -147 22 -231q21 -89 97.5 -130.5t170.5 -41.5l86 6q29 6 89.5 43t87 120.5t26.5 210.5v867h-141v123h455v-1399h125v-121h-435l-10 57l-6 56q-100 -72 -211 -115t-213 -43q-113 0 -243 60.5t-172 179t-42 319.5v883h-141zM554 1706l330 240 l86 -158l-352 -195z" />
<glyph unicode="&#xdd;" horiz-adv-x="1466" d="M49 1397v123h616v-123h-145l334 -619l325 619h-147v123h447v-123h-105l-584 -1161l25 2l29 2q39 0 94 -18.5t94 -18.5q33 0 59 14l41 33l35 49l64 -31q-31 -94 -88.5 -181t-100.5 -99l-65 -11q-45 0 -144 25q-43 10 -61 14q-51 13 -72 13l-37 -4l-43 -13q-20 -6 -65 -45 l-90 64l211 409l-512 957h-115zM645 1706l330 240l84 -158l-353 -195z" />
<glyph unicode="&#xe0;" horiz-adv-x="1144" d="M69 289q0 108 67.5 214.5t211 142.5t319.5 36h68q0 35 -3.5 66.5t-19.5 70.5q-18 60 -74 80l-67 10q-70 0 -145.5 -49t-141.5 -133l-98 31l100 307l102 -29l-18 -53q141 82 303 82q66 0 112 -13.5t107.5 -61.5t87 -131t25.5 -191v-566h119v-102h-367q-20 49 -31 104 q-157 -145 -313 -145l-76 6q-49 6 -120.5 52t-116.5 130q-31 66 -31 142zM352 344q0 -27 9 -60.5t38.5 -68.5t68.5 -53q31 -10 64 -15q61 0 110 35q68 49 83.5 145.5t15.5 231.5q-174 0 -230.5 -13.5t-99.5 -56.5q-59 -55 -59 -145zM464 1364l84 158l330 -242l-59 -111z" />
<glyph unicode="&#xe1;" horiz-adv-x="1144" d="M69 289q0 108 67.5 214.5t211 142.5t319.5 36h68q0 35 -3.5 66.5t-19.5 70.5q-18 60 -74 80l-67 10q-70 0 -145.5 -49t-141.5 -133l-98 31l100 307l102 -29l-18 -53q141 82 303 82q66 0 112 -13.5t107.5 -61.5t87 -131t25.5 -191v-566h119v-102h-367q-20 49 -31 104 q-157 -145 -313 -145l-76 6q-49 6 -120.5 52t-116.5 130q-31 66 -31 142zM352 344q0 -27 9 -60.5t38.5 -68.5t68.5 -53q31 -10 64 -15q61 0 110 35q68 49 83.5 145.5t15.5 231.5q-174 0 -230.5 -13.5t-99.5 -56.5q-59 -55 -59 -145zM434 1280l329 242l84 -158l-352 -195z " />
<glyph unicode="&#xe2;" horiz-adv-x="1144" d="M69 289q0 108 67.5 214.5t211 142.5t319.5 36h68q0 35 -3.5 66.5t-19.5 70.5q-18 60 -74 80l-67 10q-70 0 -145.5 -49t-141.5 -133l-98 31l100 307l102 -29l-18 -53q141 82 303 82q66 0 112 -13.5t107.5 -61.5t87 -131t25.5 -191v-566h119v-102h-367q-20 49 -31 104 q-157 -145 -313 -145l-76 6q-49 6 -120.5 52t-116.5 130q-31 66 -31 142zM259 1268l351 211l354 -211l-125 -101l-219 146l-238 -146zM352 344q0 -27 9 -60.5t38.5 -68.5t68.5 -53q31 -10 64 -15q61 0 110 35q68 49 83.5 145.5t15.5 231.5q-174 0 -230.5 -13.5t-99.5 -56.5 q-59 -55 -59 -145z" />
<glyph unicode="&#xe3;" horiz-adv-x="1144" d="M69 289q0 108 67.5 214.5t211 142.5t319.5 36h68q0 35 -3.5 66.5t-19.5 70.5q-18 60 -74 80l-67 10q-70 0 -145.5 -49t-141.5 -133l-98 31l100 307l102 -29l-18 -53q141 82 303 82q66 0 112 -13.5t107.5 -61.5t87 -131t25.5 -191v-566h119v-102h-367q-20 49 -31 104 q-157 -145 -313 -145l-76 6q-49 6 -120.5 52t-116.5 130q-31 66 -31 142zM202 1274q17 16 48.5 38.5t49.5 33.5q45 22 97 22l55 -6l66 -19l34 -14q62 -20 95 -20q75 0 159 71l121 -104q-61 -68 -123.5 -99.5t-128.5 -31.5q-74 0 -166 33l-37 10l-61 8q-23 0 -53 -12l-43 -17 zM352 344q0 -27 9 -60.5t38.5 -68.5t68.5 -53q31 -10 64 -15q61 0 110 35q68 49 83.5 145.5t15.5 231.5q-174 0 -230.5 -13.5t-99.5 -56.5q-59 -55 -59 -145z" />
<glyph unicode="&#xe8;" horiz-adv-x="1099" d="M65 502q0 184 96.5 319t213 189.5t233.5 54.5l100 -8q39 0 79 -18.5t89 -53.5q90 -61 129 -145l53 -113l21 -65l-701 -267q49 -112 137.5 -177.5t180.5 -65.5q80 0 149.5 31.5t151.5 119.5l84 -70q-103 -131 -239 -202.5t-265 -71.5l-35 2l-90 10q-35 0 -79 20.5 t-95 57.5q-98 70 -156 201q-28 67 -42.5 127.5t-14.5 124.5zM327 637q0 -68 14 -117l455 172l-14 56q-6 24 -27 49q-90 129 -194 129q-50 0 -93 -16.5t-75.5 -61.5t-51.5 -96q-6 -27 -10 -53.5t-4 -61.5zM401 1364l84 158l332 -242l-64 -111z" />
<glyph unicode="&#xe9;" horiz-adv-x="1099" d="M65 502q0 184 96.5 319t213 189.5t233.5 54.5l100 -8q39 0 79 -18.5t89 -53.5q90 -61 129 -145l53 -113l21 -65l-701 -267q49 -112 137.5 -177.5t180.5 -65.5q80 0 149.5 31.5t151.5 119.5l84 -70q-103 -131 -239 -202.5t-265 -71.5l-35 2l-90 10q-35 0 -79 20.5 t-95 57.5q-98 70 -156 201q-28 67 -42.5 127.5t-14.5 124.5zM327 637q0 -68 14 -117l455 172l-14 56q-6 24 -27 49q-90 129 -194 129q-50 0 -93 -16.5t-75.5 -61.5t-51.5 -96q-6 -27 -10 -53.5t-4 -61.5zM348 1276l329 244l86 -160l-352 -195z" />
<glyph unicode="&#xea;" horiz-adv-x="1099" d="M65 502q0 184 96.5 319t213 189.5t233.5 54.5l100 -8q39 0 79 -18.5t89 -53.5q90 -61 129 -145l53 -113l21 -65l-701 -267q49 -112 137.5 -177.5t180.5 -65.5q80 0 149.5 31.5t151.5 119.5l84 -70q-103 -131 -239 -202.5t-265 -71.5l-35 2l-90 10q-35 0 -79 20.5 t-95 57.5q-98 70 -156 201q-28 67 -42.5 127.5t-14.5 124.5zM266 1257l352 213l354 -213l-125 -100l-219 146l-239 -146zM327 637q0 -68 14 -117l455 172l-14 56q-6 24 -27 49q-90 129 -194 129q-50 0 -93 -16.5t-75.5 -61.5t-51.5 -96q-6 -27 -10 -53.5t-4 -61.5z" />
<glyph unicode="&#xec;" horiz-adv-x="620" d="M79 0v102h113v727l-113 -28v121l401 127l-8 -58l-2 -39v-850h117v-102h-508zM120 1358l86 160l330 -242l-64 -113z" />
<glyph unicode="&#xed;" horiz-adv-x="620" d="M69 1278l330 242l84 -158l-353 -195zM79 0v102h113v727l-113 -28v121l402 127l-9 -58l-2 -39v-850h117v-102h-508z" />
<glyph unicode="&#xf2;" horiz-adv-x="1236" d="M65 563q12 139 77.5 248t183.5 170t226 80l54 4q116 0 255.5 -47t219.5 -136t110 -184q17 -51 25 -93t8 -95q0 -66 -8 -100l-29 -115q-18 -82 -104 -166t-213 -129q-64 -20 -115 -30.5t-102 -10.5q-113 0 -212.5 32t-193.5 106.5t-141 205.5q-21 66 -31 128.5t-10 131.5z M344 629q0 -135 48 -275.5t109 -193.5q62 -45 103 -58q47 -10 82 -10q53 0 96 14q71 31 106 97q37 61 43 108l6 76q0 133 -44 276.5t-106.5 192.5t-105.5 61.5t-81 12.5q-58 0 -117.5 -25.5t-90 -82t-46.5 -150.5zM421 1356l84 157l328 -241l-59 -113z" />
<glyph unicode="&#xf3;" horiz-adv-x="1236" d="M65 563q12 139 77.5 248t183.5 170t226 80l54 4q116 0 255.5 -47t219.5 -136t110 -184q17 -51 25 -93t8 -95q0 -66 -8 -100l-29 -115q-18 -82 -104 -166t-213 -129q-64 -20 -115 -30.5t-102 -10.5q-113 0 -212.5 32t-193.5 106.5t-141 205.5q-21 66 -31 128.5t-10 131.5z M344 629q0 -135 48 -275.5t109 -193.5q62 -45 103 -58q47 -10 82 -10q53 0 96 14q71 31 106 97q37 61 43 108l6 76q0 133 -44 276.5t-106.5 192.5t-105.5 61.5t-81 12.5q-58 0 -117.5 -25.5t-90 -82t-46.5 -150.5zM380 1276l328 244l86 -160l-352 -195z" />
<glyph unicode="&#xf4;" horiz-adv-x="1236" d="M65 563q12 139 77.5 248t183.5 170t226 80l54 4q116 0 255.5 -47t219.5 -136t110 -184q17 -51 25 -93t8 -95q0 -66 -8 -100l-29 -115q-18 -82 -104 -166t-213 -129q-64 -20 -115 -30.5t-102 -10.5q-113 0 -212.5 32t-193.5 106.5t-141 205.5q-21 66 -31 128.5t-10 131.5z M272 1266l352 213l354 -213l-125 -101l-221 146l-237 -146zM344 629q0 -135 48 -275.5t109 -193.5q62 -45 103 -58q47 -10 82 -10q53 0 96 14q71 31 106 97q37 61 43 108l6 76q0 133 -44 276.5t-106.5 192.5t-105.5 61.5t-81 12.5q-58 0 -117.5 -25.5t-90 -82t-46.5 -150.5z " />
<glyph unicode="&#xf5;" horiz-adv-x="1236" d="M65 563q12 139 77.5 248t183.5 170t226 80l54 4q116 0 255.5 -47t219.5 -136t110 -184q17 -51 25 -93t8 -95q0 -66 -8 -100l-29 -115q-18 -82 -104 -166t-213 -129q-64 -20 -115 -30.5t-102 -10.5q-113 0 -212.5 32t-193.5 106.5t-141 205.5q-21 66 -31 128.5t-10 131.5z M255 1274q17 16 48.5 38.5t50.5 33.5q45 22 96 22l55 -6l66 -19l35 -14q55 -20 92 -20q76 0 160 71l122 -104q-59 -66 -124.5 -98.5t-131.5 -32.5q-69 0 -161 33l-37 10l-62 8q-24 0 -55 -12l-41 -17zM344 629q0 -135 48 -275.5t109 -193.5q62 -45 103 -58q47 -10 82 -10 q53 0 96 14q71 31 106 97q37 61 43 108l6 76q0 133 -44 276.5t-106.5 192.5t-105.5 61.5t-81 12.5q-58 0 -117.5 -25.5t-90 -82t-46.5 -150.5z" />
<glyph unicode="&#xf7;" horiz-adv-x="1706" />
<glyph unicode="&#xf9;" horiz-adv-x="582" />
<glyph unicode="&#xfa;" horiz-adv-x="580" />
<glyph unicode="&#xfd;" horiz-adv-x="629" />
<glyph unicode="&#x102;" horiz-adv-x="1536" d="M47 0v121h123l459 1276l14 57l10 47h342l6 -51l15 -53l422 -1276h116v-121h-569v121h98l-88 285h-530l-92 -285h129v-121h-455zM428 1781l44 63q97 -53 189 -79.5t181 -26.5q86 0 155 18.5t102 32.5q20 8 40 18.5t52 28.5l45 -63q-90 -92 -189 -133t-202 -41 q-30 0 -58.5 3t-62.5 10q-64 13 -145.5 56t-150.5 113zM510 547h440l-209 659z" />
<glyph unicode="&#x103;" horiz-adv-x="1144" d="M69 289q0 108 67.5 214.5t211 142.5t319.5 36h68q0 35 -3.5 66.5t-19.5 70.5q-18 60 -74 80l-67 10q-70 0 -145.5 -49t-141.5 -133l-98 31l100 307l102 -29l-18 -53q141 82 303 82q66 0 112 -13.5t107.5 -61.5t87 -131t25.5 -191v-566h119v-102h-367q-20 49 -31 104 q-157 -145 -313 -145l-76 6q-49 6 -120.5 52t-116.5 130q-31 66 -31 142zM270 1341l41 63q88 -53 172 -79.5t165 -26.5q78 0 141.5 18.5t92.5 32.5q19 8 37.5 18.5t47.5 28.5l40 -63q-82 -92 -172 -133t-184 -41q-28 0 -53.5 3t-57.5 10q-58 13 -132 56t-138 113zM352 344 q0 -27 9 -60.5t38.5 -68.5t68.5 -53q31 -10 64 -15q61 0 110 35q68 49 83.5 145.5t15.5 231.5q-174 0 -230.5 -13.5t-99.5 -56.5q-59 -55 -59 -145z" />
<glyph unicode="&#x10c;" horiz-adv-x="1274" />
<glyph unicode="&#x10d;" horiz-adv-x="922" />
<glyph unicode="&#x110;" horiz-adv-x="1527" d="M8 836l104 126q57 34 104 51v384h-141v123h684q231 0 401 -82t271.5 -275.5t101.5 -404.5q0 -238 -123 -431.5t-315.5 -260t-440.5 -66.5h-579v121h141v712l-24 -3l-40 -11q-19 -6 -61 -42zM529 121h134q57 0 229 44t234.5 213t74.5 237.5t12 148.5q0 127 -31.5 236.5 t-122.5 218t-214 145.5q-64 16 -137.5 24.5t-178.5 8.5v-402h3q30 0 55 13l38 30l32 45l59 -28q-29 -87 -78 -161q-45 -67 -109 -87v-686z" />
<glyph unicode="&#x111;" horiz-adv-x="1271" d="M63 426q0 154 54.5 299t194 242.5t298.5 97.5q37 0 57.5 -2t57.5 -10.5t63.5 -15.5t69.5 -27l8 -4v158h-383v105h383v139l-114 -35v116l508 162v-121l-113 -34v-227h112v-105h-112v-1062h113v-102h-373l-15 39q-6 33 -10 37q-102 -58 -186 -86q-80 -31 -164 -31 q-86 0 -196.5 55.5t-181.5 174t-71 237.5zM362 510l13 -92q10 -76 62 -153t112 -107q63 -27 113 -27q69 0 128.5 39t75.5 80v555q-4 14 -12 28.5t-23 32.5q-24 31 -65 56.5t-117 25.5q-43 0 -84 -12l-28 -14l-33 -21q-72 -55 -107 -159.5t-35 -198.5v-33z" />
<glyph unicode="&#x128;" horiz-adv-x="704" d="M75 0v121h141v1276h-141v123h594v-123h-139v-1276h139v-121h-594zM106 1761q99 99 195 99q49 0 121 -27l37 -14q61 -21 94 -21q74 0 157 72l121 -107q-61 -67 -124.5 -97t-127.5 -30h-45q-22 6 -36.5 9.5t-35 8.5t-44.5 13l-37 10l-68 11q-31 0 -92 -31z" />
<glyph unicode="&#x129;" horiz-adv-x="620" d="M55 1274q16 16 48 38.5t50 33.5q45 22 97 22l55 -6l65 -19l35 -14q62 -20 94 -20q76 0 160 71l121 -104q-61 -68 -123.5 -99.5t-128.5 -31.5q-74 0 -166 33l-37 10l-61 8q-23 0 -53 -12l-43 -17zM79 0v102h113v727l-113 -28v121l402 127l-9 -58l-2 -39v-850h117v-102 h-508z" />
<glyph unicode="&#x168;" horiz-adv-x="1568" d="M75 1397v123h455v-967q0 -147 22 -231q21 -89 97.5 -130.5t170.5 -41.5l86 6q29 6 89.5 43t87 120.5t26.5 210.5v867h-141v123h455v-1399h125v-121h-435l-10 57l-6 56q-100 -72 -211 -115t-213 -43q-113 0 -243 60.5t-172 179t-42 319.5v883h-141zM515 1761q99 99 195 99 q49 0 121 -27l37 -14q61 -21 94 -21q74 0 157 72l121 -107q-61 -67 -124.5 -97t-127.5 -30h-45q-22 6 -36.5 9.5t-35 8.5t-44.5 13l-37 10l-68 11q-31 0 -92 -31z" />
<glyph unicode="&#x169;" horiz-adv-x="1236" d="M79 801v121l401 127l-8 -58l-2 -39v-528q0 -113 9.5 -162t54.5 -82q45 -28 94 -28l33 4l43 12q22 8 62 35.5t63 60.5v565l-113 -28v121l403 127l-6 -45l-2 -52v-850h111v-102h-385l-6 45l-2 57q-95 -65 -192 -104t-177 -39q-68 0 -142.5 37t-100 111.5t-25.5 191.5v49 v481zM350 1274q17 16 48.5 38.5t49.5 33.5q45 22 97 22l55 -6l66 -19l34 -14q56 -20 92 -20q76 0 160 71l123 -104q-59 -66 -124.5 -98.5t-131.5 -32.5q-70 0 -162 33l-37 10l-61 8q-25 0 -55 -12l-41 -17z" />
<glyph unicode="&#x1a0;" d="M69 748q0 47 6 97t10 83q17 131 120.5 282.5t246.5 227.5q135 65 209 88q35 10 74 17t61 11l117 7q170 0 332 -61q115 -44 202 -121l59 11v98l-2 56l-5 51l244 49v-86l-49 -14v-262l-138 -27q74 -104 114 -224q50 -154 50 -302q0 -115 -43 -257t-182.5 -285.5 t-292.5 -188.5q-70 -21 -148 -33t-151 -12q-162 0 -309.5 44t-271.5 147.5t-190 271.5q-30 84 -46.5 167t-16.5 165zM391 862q0 -170 62 -349t154.5 -264t178.5 -122q80 -31 157 -31q37 0 68 4t84 19q88 24 161 99t105 167q29 90 37 150l8 122q0 152 -47 300.5t-131 251 t-186.5 150.5t-194.5 48h-24l-35 -6l-37 -6l-59 -17q-131 -49 -196 -155.5t-87 -204.5q-18 -96 -18 -156z" />
<glyph unicode="&#x1a1;" horiz-adv-x="1247" d="M71 520l8 105q0 67 68.5 181t186.5 175t226 80l54 4q116 0 256 -47q133 -45 212 -128l53 10v149l181 39v-86l-49 -14v-206l-95 -19q17 -32 27 -65q17 -51 25 -93t8 -95q0 -66 -8 -100l-31 -115q-18 -78 -108 -168q-82 -82 -207 -125t-217 -43q-113 0 -211 32 t-190.5 104.5t-143.5 191.5q-45 123 -45 233zM352 629q0 -135 48 -277.5t109 -191.5q62 -45 103 -58q47 -10 82 -10q53 0 96 14q69 31 111 99.5t42 132.5v43q0 68 -10 132.5t-35 145.5q-43 150 -102 196t-104.5 60.5t-83.5 14.5q-58 0 -117.5 -25.5t-90 -82t-46.5 -150.5z " />
<glyph unicode="&#x1af;" horiz-adv-x="1568" d="M75 1397v123h455v-967q0 -147 22 -231q21 -89 97.5 -130.5t170.5 -41.5l86 6q29 6 89.5 43t87 120.5t26.5 210.5v867h-141v123h455v-134l22 4v98l-2 56l-5 51l244 49v-86l-49 -14v-262l-210 -42v-1119h125v-121h-435l-10 57l-6 56q-100 -72 -211 -115t-213 -43 q-113 0 -243 60.5t-172 179t-42 319.5v883h-141z" />
<glyph unicode="&#x1b0;" horiz-adv-x="1268" d="M79 801v121l401 127l-8 -58l-2 -39v-528q0 -113 9.5 -162t54.5 -82q45 -28 94 -28l33 4l43 12q22 8 62 35.5t63 60.5v565l-113 -28v121l403 127l-6 -45l-2 -52v-61l45 9v149l181 39v-86l-49 -14v-206l-177 -36v-644h111v-102h-385l-6 45l-2 57q-95 -65 -192 -104 t-177 -39q-68 0 -142.5 37t-100 111.5t-25.5 191.5v530z" />
<glyph unicode="&#x1ea0;" horiz-adv-x="1536" d="M49 0v121h123l459 1276l14 57l10 47h342l6 -51l15 -53l422 -1276h116v-121h-569v121h98l-88 285h-530l-92 -285h129v-121h-455zM512 547h440l-209 659zM619 -236q0 34 17 64t54 46l45 6l43 -6q17 -2 35.5 -15.5t34.5 -45.5q10 -25 14 -62q0 -35 -16 -61 q-12 -27 -42 -42.5t-67 -19.5q-22 0 -65 19q-35 18 -47 63z" />
<glyph unicode="&#x1ea1;" horiz-adv-x="1144" d="M69 289q0 108 67.5 214.5t211 142.5t319.5 36h68q0 35 -3.5 66.5t-19.5 70.5q-18 60 -74 80l-67 10q-70 0 -145.5 -49t-141.5 -133l-98 31l100 307l102 -29l-18 -53q141 82 303 82q66 0 112 -13.5t107.5 -61.5t87 -131t25.5 -191v-566h119v-102h-367q-20 49 -31 104 q-157 -145 -313 -145l-76 6q-49 6 -120.5 52t-116.5 130q-31 66 -31 142zM352 344q0 -27 9 -60.5t38.5 -68.5t68.5 -53q31 -10 64 -15q61 0 110 35q68 49 83.5 145.5t15.5 231.5q-174 0 -230.5 -13.5t-99.5 -56.5q-59 -55 -59 -145zM449 -236q0 34 17.5 64t54.5 46l45 6 l43 -6q16 -2 34.5 -15.5t35.5 -45.5q10 -25 14 -62q0 -35 -16 -61q-13 -27 -42.5 -42.5t-66.5 -19.5q-22 0 -65 19q-35 18 -48 63z" />
<glyph unicode="&#x1ea2;" horiz-adv-x="1536" d="M49 0v121h123l459 1276l14 57l10 47h342l6 -51l15 -53l422 -1276h116v-121h-569v121h98l-88 285h-530l-92 -285h129v-121h-455zM512 547h440l-209 659zM1033 1973l104 108q68 -54 99.5 -109.5t31.5 -113.5q0 -61 -32 -141l-9 -33q-12 -37 -12 -59q0 -16 10 -36l21 -44 l-107 -99q-49 43 -72.5 87t-23.5 83q0 43 27 106l14 32q20 49 20 81q0 68 -71 138z" />
<glyph unicode="&#x1ea3;" horiz-adv-x="1144" d="M69 289q0 108 67.5 214.5t211 142.5t319.5 36h68q0 35 -3.5 66.5t-19.5 70.5q-18 60 -74 80l-67 10q-70 0 -145.5 -49t-141.5 -133l-98 31l100 307l102 -29l-18 -53q141 82 303 82q66 0 112 -13.5t107.5 -61.5t87 -131t25.5 -191v-566h119v-102h-367q-20 49 -31 104 q-157 -145 -313 -145l-76 6q-49 6 -120.5 52t-116.5 130q-31 66 -31 142zM352 344q0 -27 9 -60.5t38.5 -68.5t68.5 -53q31 -10 64 -15q61 0 110 35q68 49 83.5 145.5t15.5 231.5q-174 0 -230.5 -13.5t-99.5 -56.5q-59 -55 -59 -145zM665 1657l105 108q67 -54 99 -109.5 t32 -113.5q0 -61 -33 -141l-8 -33q-12 -37 -12 -59q0 -16 10 -36l20 -44l-106 -99q-49 43 -72.5 87t-23.5 83q0 43 26 106l14 32q21 49 21 81q0 68 -72 138z" />
<glyph unicode="&#x1ea4;" horiz-adv-x="1536" d="M49 0v121h123l459 1276l14 57l10 47h342l6 -51l15 -53l422 -1276h116v-121h-569v121h98l-88 285h-530l-92 -285h129v-121h-455zM479 1698l350 213l359 -213l-125 -101l-223 146l-236 -146zM512 547h440l-209 659zM1026 1938l330 240l84 -158l-353 -195z" />
<glyph unicode="&#x1ea5;" horiz-adv-x="1144" d="M69 289q0 108 67.5 214.5t211 142.5t319.5 36h68q0 35 -3.5 66.5t-19.5 70.5q-18 60 -74 80l-67 10q-70 0 -145.5 -49t-141.5 -133l-98 31l100 307l102 -29l-18 -53q141 82 303 82q66 0 112 -13.5t107.5 -61.5t87 -131t25.5 -191v-566h119v-102h-367q-20 49 -31 104 q-157 -145 -313 -145l-76 6q-49 6 -120.5 52t-116.5 130q-31 66 -31 142zM259 1268l351 211l354 -211l-125 -101l-219 146l-238 -146zM352 344q0 -27 9 -60.5t38.5 -68.5t68.5 -53q31 -10 64 -15q61 0 110 35q68 49 83.5 145.5t15.5 231.5q-174 0 -230.5 -13.5t-99.5 -56.5 q-59 -55 -59 -145zM816 1508l329 240l84 -158l-352 -195z" />
<glyph unicode="&#x1ea6;" horiz-adv-x="1536" d="M49 0v121h123l459 1276l14 57l10 47h342l6 -51l15 -53l422 -1276h116v-121h-569v121h98l-88 285h-530l-92 -285h129v-121h-455zM479 1698l350 213l359 -213l-125 -101l-223 146l-236 -146zM512 547h440l-209 659zM700 2057l84 158l330 -240l-62 -113z" />
<glyph unicode="&#x1ea7;" horiz-adv-x="1144" d="M69 289q0 108 67.5 214.5t211 142.5t319.5 36h68q0 35 -3.5 66.5t-19.5 70.5q-18 60 -74 80l-67 10q-70 0 -145.5 -49t-141.5 -133l-98 31l100 307l102 -29l-18 -53q141 82 303 82q66 0 112 -13.5t107.5 -61.5t87 -131t25.5 -191v-566h119v-102h-367q-20 49 -31 104 q-157 -145 -313 -145l-76 6q-49 6 -120.5 52t-116.5 130q-31 66 -31 142zM259 1268l351 211l354 -211l-125 -101l-219 146l-238 -146zM352 344q0 -27 9 -60.5t38.5 -68.5t68.5 -53q31 -10 64 -15q61 0 110 35q68 49 83.5 145.5t15.5 231.5q-174 0 -230.5 -13.5t-99.5 -56.5 q-59 -55 -59 -145zM490 1630l84 158l330 -240l-61 -113z" />
<glyph unicode="&#x1ea8;" horiz-adv-x="1536" d="M49 0v121h123l459 1276l14 57l10 47h342l6 -51l15 -53l422 -1276h116v-121h-569v121h98l-88 285h-530l-92 -285h129v-121h-455zM479 1698l350 213l359 -213l-125 -101l-223 146l-236 -146zM512 547h440l-209 659zM956 2357l104 108q68 -54 99.5 -109.5t31.5 -113.5 q0 -61 -32 -141l-9 -33q-12 -37 -12 -59q0 -16 10 -36l21 -44l-107 -99q-49 43 -72.5 87t-23.5 83q0 43 27 106l14 32q20 49 20 81q0 68 -71 138z" />
<glyph unicode="&#x1ea9;" horiz-adv-x="1144" d="M69 289q0 108 67.5 214.5t211 142.5t319.5 36h68q0 35 -3.5 66.5t-19.5 70.5q-18 60 -74 80l-67 10q-70 0 -145.5 -49t-141.5 -133l-98 31l100 307l102 -29l-18 -53q141 82 303 82q66 0 112 -13.5t107.5 -61.5t87 -131t25.5 -191v-566h119v-102h-367q-20 49 -31 104 q-157 -145 -313 -145l-76 6q-49 6 -120.5 52t-116.5 130q-31 66 -31 142zM259 1268l351 211l354 -211l-125 -101l-219 146l-238 -146zM352 344q0 -27 9 -60.5t38.5 -68.5t68.5 -53q31 -10 64 -15q61 0 110 35q68 49 83.5 145.5t15.5 231.5q-174 0 -230.5 -13.5t-99.5 -56.5 q-59 -55 -59 -145zM735 1927l105 108q67 -54 99 -109.5t32 -113.5q0 -61 -33 -141l-8 -33q-12 -37 -12 -59q0 -16 10 -36l20 -44l-106 -99q-49 43 -72.5 87t-23.5 83q0 43 26 106l14 32q21 49 21 81q0 68 -72 138z" />
<glyph unicode="&#x1eaa;" horiz-adv-x="1536" d="M49 0v121h123l459 1276l14 57l10 47h342l6 -51l15 -53l422 -1276h116v-121h-569v121h98l-88 285h-530l-92 -285h129v-121h-455zM479 1698l350 213l359 -213l-125 -101l-223 146l-236 -146zM512 547h440l-209 659zM612 2037q49 49 99.5 72.5t95.5 23.5q49 0 120 -27 l37 -14q56 -21 92 -21q78 0 158 72l123 -104q-61 -68 -124.5 -99.5t-129.5 -31.5q-70 0 -162 32l-37 9q-43 12 -67 12q-19 0 -41 -10l-51 -21z" />
<glyph unicode="&#x1eab;" horiz-adv-x="1144" d="M69 289q0 108 67.5 214.5t211 142.5t319.5 36h68q0 35 -3.5 66.5t-19.5 70.5q-18 60 -74 80l-67 10q-70 0 -145.5 -49t-141.5 -133l-98 31l100 307l102 -29l-18 -53q141 82 303 82q66 0 112 -13.5t107.5 -61.5t87 -131t25.5 -191v-566h119v-102h-367q-20 49 -31 104 q-157 -145 -313 -145l-76 6q-49 6 -120.5 52t-116.5 130q-31 66 -31 142zM259 1268l351 211l354 -211l-125 -101l-219 146l-238 -146zM352 344q0 -27 9 -60.5t38.5 -68.5t68.5 -53q31 -10 64 -15q61 0 110 35q68 49 83.5 145.5t15.5 231.5q-174 0 -230.5 -13.5t-99.5 -56.5 q-59 -55 -59 -145zM392 1606q49 49 99 72.5t95 23.5q49 0 121 -27l37 -14q55 -21 92 -21q78 0 158 72l123 -104q-62 -68 -125.5 -99.5t-128.5 -31.5q-70 0 -162 32l-37 9q-43 12 -68 12q-18 0 -41 -10l-51 -21z" />
<glyph unicode="&#x1eac;" horiz-adv-x="1536" d="M49 0v121h123l459 1276l14 57l10 47h342l6 -51l15 -53l422 -1276h116v-121h-569v121h98l-88 285h-530l-92 -285h129v-121h-455zM479 1698l350 213l359 -213l-125 -101l-223 146l-236 -146zM512 547h440l-209 659zM619 -236q0 34 17 64t54 46l45 6l43 -6q17 -2 35.5 -15.5 t34.5 -45.5q10 -25 14 -62q0 -35 -16 -61q-12 -27 -42 -42.5t-67 -19.5q-22 0 -65 19q-35 18 -47 63z" />
<glyph unicode="&#x1ead;" horiz-adv-x="1144" d="M69 289q0 108 67.5 214.5t211 142.5t319.5 36h68q0 35 -3.5 66.5t-19.5 70.5q-18 60 -74 80l-67 10q-70 0 -145.5 -49t-141.5 -133l-98 31l100 307l102 -29l-18 -53q141 82 303 82q66 0 112 -13.5t107.5 -61.5t87 -131t25.5 -191v-566h119v-102h-367q-20 49 -31 104 q-157 -145 -313 -145l-76 6q-49 6 -120.5 52t-116.5 130q-31 66 -31 142zM259 1268l351 211l354 -211l-125 -101l-219 146l-238 -146zM352 344q0 -27 9 -60.5t38.5 -68.5t68.5 -53q31 -10 64 -15q61 0 110 35q68 49 83.5 145.5t15.5 231.5q-174 0 -230.5 -13.5t-99.5 -56.5 q-59 -55 -59 -145zM449 -236q0 34 17.5 64t54.5 46l45 6l43 -6q16 -2 34.5 -15.5t35.5 -45.5q10 -25 14 -62q0 -35 -16 -61q-13 -27 -42.5 -42.5t-66.5 -19.5q-22 0 -65 19q-35 18 -48 63z" />
<glyph unicode="&#x1eae;" horiz-adv-x="1536" d="M47 0v121h123l459 1276l14 57l10 47h342l6 -51l15 -53l422 -1276h116v-121h-569v121h98l-88 285h-530l-92 -285h129v-121h-455zM428 1781l44 63q97 -53 189 -79.5t181 -26.5q86 0 155 18.5t102 32.5q20 8 40 18.5t52 28.5l45 -63q-90 -92 -189 -133t-202 -41 q-30 0 -58.5 3t-62.5 10q-64 13 -145.5 56t-150.5 113zM510 547h440l-209 659zM758 1915l330 240l84 -158l-353 -195z" />
<glyph unicode="&#x1eaf;" horiz-adv-x="1144" d="M69 289q0 108 67.5 214.5t211 142.5t319.5 36h68q0 35 -3.5 66.5t-19.5 70.5q-18 60 -74 80l-67 10q-70 0 -145.5 -49t-141.5 -133l-98 31l100 307l102 -29l-18 -53q141 82 303 82q66 0 112 -13.5t107.5 -61.5t87 -131t25.5 -191v-566h119v-102h-367q-20 49 -31 104 q-157 -145 -313 -145l-76 6q-49 6 -120.5 52t-116.5 130q-31 66 -31 142zM270 1341l41 63q88 -53 172 -79.5t165 -26.5q78 0 141.5 18.5t92.5 32.5q19 8 37.5 18.5t47.5 28.5l40 -63q-82 -92 -172 -133t-184 -41q-28 0 -53.5 3t-57.5 10q-58 13 -132 56t-138 113zM352 344 q0 -27 9 -60.5t38.5 -68.5t68.5 -53q31 -10 64 -15q61 0 110 35q68 49 83.5 145.5t15.5 231.5q-174 0 -230.5 -13.5t-99.5 -56.5q-59 -55 -59 -145zM592 1489l329 242l84 -158l-352 -195z" />
<glyph unicode="&#x1eb0;" horiz-adv-x="1536" d="M47 0v121h123l459 1276l14 57l10 47h342l6 -51l15 -53l422 -1276h116v-121h-569v121h98l-88 285h-530l-92 -285h129v-121h-455zM428 1781l44 63q97 -53 189 -79.5t181 -26.5q86 0 155 18.5t102 32.5q20 8 40 18.5t52 28.5l45 -63q-90 -92 -189 -133t-202 -41 q-30 0 -58.5 3t-62.5 10q-64 13 -145.5 56t-150.5 113zM510 547h440l-209 659zM517 1997l84 158l330 -240l-62 -113z" />
<glyph unicode="&#x1eb1;" horiz-adv-x="1144" d="M69 289q0 108 67.5 214.5t211 142.5t319.5 36h68q0 35 -3.5 66.5t-19.5 70.5q-18 60 -74 80l-67 10q-70 0 -145.5 -49t-141.5 -133l-98 31l100 307l102 -29l-18 -53q141 82 303 82q66 0 112 -13.5t107.5 -61.5t87 -131t25.5 -191v-566h119v-102h-367q-20 49 -31 104 q-157 -145 -313 -145l-76 6q-49 6 -120.5 52t-116.5 130q-31 66 -31 142zM270 1341l41 63q88 -53 172 -79.5t165 -26.5q78 0 141.5 18.5t92.5 32.5q19 8 37.5 18.5t47.5 28.5l40 -63q-82 -92 -172 -133t-184 -41q-28 0 -53.5 3t-57.5 10q-58 13 -132 56t-138 113zM338 1553 l84 158l330 -242l-59 -111zM352 344q0 -27 9 -60.5t38.5 -68.5t68.5 -53q31 -10 64 -15q61 0 110 35q68 49 83.5 145.5t15.5 231.5q-174 0 -230.5 -13.5t-99.5 -56.5q-59 -55 -59 -145z" />
<glyph unicode="&#x1eb2;" horiz-adv-x="1536" d="M47 0v121h123l459 1276l14 57l10 47h342l6 -51l15 -53l422 -1276h116v-121h-569v121h98l-88 285h-530l-92 -285h129v-121h-455zM428 1781l44 63q97 -53 189 -79.5t181 -26.5q86 0 155 18.5t102 32.5q20 8 40 18.5t52 28.5l45 -63q-90 -92 -189 -133t-202 -41 q-30 0 -58.5 3t-62.5 10q-64 13 -145.5 56t-150.5 113zM510 547h440l-209 659zM750 2340l104 108q68 -54 99.5 -109.5t31.5 -113.5q0 -61 -32 -141l-9 -33q-12 -37 -12 -59q0 -16 10 -36l21 -44l-107 -99q-49 43 -72.5 87t-23.5 83q0 43 27 106l14 32q20 49 20 81 q0 68 -71 138z" />
<glyph unicode="&#x1eb3;" horiz-adv-x="1144" d="M69 289q0 108 67.5 214.5t211 142.5t319.5 36h68q0 35 -3.5 66.5t-19.5 70.5q-18 60 -74 80l-67 10q-70 0 -145.5 -49t-141.5 -133l-98 31l100 307l102 -29l-18 -53q141 82 303 82q66 0 112 -13.5t107.5 -61.5t87 -131t25.5 -191v-566h119v-102h-367q-20 49 -31 104 q-157 -145 -313 -145l-76 6q-49 6 -120.5 52t-116.5 130q-31 66 -31 142zM270 1341l41 63q88 -53 172 -79.5t165 -26.5q78 0 141.5 18.5t92.5 32.5q19 8 37.5 18.5t47.5 28.5l40 -63q-82 -92 -172 -133t-184 -41q-28 0 -53.5 3t-57.5 10q-58 13 -132 56t-138 113zM352 344 q0 -27 9 -60.5t38.5 -68.5t68.5 -53q31 -10 64 -15q61 0 110 35q68 49 83.5 145.5t15.5 231.5q-174 0 -230.5 -13.5t-99.5 -56.5q-59 -55 -59 -145zM602 1877l105 108q67 -54 99 -109.5t32 -113.5q0 -61 -33 -141l-8 -33q-12 -37 -12 -59q0 -16 10 -36l20 -44l-106 -99 q-49 43 -72.5 87t-23.5 83q0 43 26 106l14 32q21 49 21 81q0 68 -72 138z" />
<glyph unicode="&#x1eb4;" horiz-adv-x="1536" d="M47 0v121h123l459 1276l14 57l10 47h342l6 -51l15 -53l422 -1276h116v-121h-569v121h98l-88 285h-530l-92 -285h129v-121h-455zM428 1781l44 63q97 -53 189 -79.5t181 -26.5q86 0 155 18.5t102 32.5q20 8 40 18.5t52 28.5l45 -63q-90 -92 -189 -133t-202 -41 q-30 0 -58.5 3t-62.5 10q-64 13 -145.5 56t-150.5 113zM510 547h440l-209 659zM549 1970q49 49 99.5 72.5t95.5 23.5q49 0 120 -27l37 -14q56 -21 92 -21q78 0 158 72l123 -104q-61 -68 -124.5 -99.5t-129.5 -31.5q-70 0 -162 32l-37 9q-43 12 -67 12q-19 0 -41 -10l-51 -21 z" />
<glyph unicode="&#x1eb5;" horiz-adv-x="1144" d="M69 289q0 108 67.5 214.5t211 142.5t319.5 36h68q0 35 -3.5 66.5t-19.5 70.5q-18 60 -74 80l-67 10q-70 0 -145.5 -49t-141.5 -133l-98 31l100 307l102 -29l-18 -53q141 82 303 82q66 0 112 -13.5t107.5 -61.5t87 -131t25.5 -191v-566h119v-102h-367q-20 49 -31 104 q-157 -145 -313 -145l-76 6q-49 6 -120.5 52t-116.5 130q-31 66 -31 142zM270 1341l41 63q88 -53 172 -79.5t165 -26.5q78 0 141.5 18.5t92.5 32.5q19 8 37.5 18.5t47.5 28.5l40 -63q-82 -92 -172 -133t-184 -41q-28 0 -53.5 3t-57.5 10q-58 13 -132 56t-138 113zM328 1543 q17 16 48.5 38.5t49.5 33.5q45 22 97 22l55 -6l66 -19l34 -14q62 -20 95 -20q75 0 159 71l121 -104q-61 -68 -123.5 -99.5t-128.5 -31.5q-74 0 -166 33l-37 10l-61 8q-23 0 -53 -12l-43 -17zM352 344q0 -27 9 -60.5t38.5 -68.5t68.5 -53q31 -10 64 -15q61 0 110 35 q68 49 83.5 145.5t15.5 231.5q-174 0 -230.5 -13.5t-99.5 -56.5q-59 -55 -59 -145z" />
<glyph unicode="&#x1eb6;" horiz-adv-x="1536" d="M47 0v121h123l459 1276l14 57l10 47h342l6 -51l15 -53l422 -1276h116v-121h-569v121h98l-88 285h-530l-92 -285h129v-121h-455zM428 1781l44 63q97 -53 189 -79.5t181 -26.5q86 0 155 18.5t102 32.5q20 8 40 18.5t52 28.5l45 -63q-90 -92 -189 -133t-202 -41 q-30 0 -58.5 3t-62.5 10q-64 13 -145.5 56t-150.5 113zM510 547h440l-209 659zM619 -236q0 34 17 64t54 46l45 6l43 -6q17 -2 35.5 -15.5t34.5 -45.5q10 -25 14 -62q0 -35 -16 -61q-12 -27 -42 -42.5t-67 -19.5q-22 0 -65 19q-35 18 -47 63z" />
<glyph unicode="&#x1eb7;" horiz-adv-x="1144" d="M69 289q0 108 67.5 214.5t211 142.5t319.5 36h68q0 35 -3.5 66.5t-19.5 70.5q-18 60 -74 80l-67 10q-70 0 -145.5 -49t-141.5 -133l-98 31l100 307l102 -29l-18 -53q141 82 303 82q66 0 112 -13.5t107.5 -61.5t87 -131t25.5 -191v-566h119v-102h-367q-20 49 -31 104 q-157 -145 -313 -145l-76 6q-49 6 -120.5 52t-116.5 130q-31 66 -31 142zM270 1341l41 63q88 -53 172 -79.5t165 -26.5q78 0 141.5 18.5t92.5 32.5q19 8 37.5 18.5t47.5 28.5l40 -63q-82 -92 -172 -133t-184 -41q-28 0 -53.5 3t-57.5 10q-58 13 -132 56t-138 113zM352 344 q0 -27 9 -60.5t38.5 -68.5t68.5 -53q31 -10 64 -15q61 0 110 35q68 49 83.5 145.5t15.5 231.5q-174 0 -230.5 -13.5t-99.5 -56.5q-59 -55 -59 -145zM449 -236q0 34 17.5 64t54.5 46l45 6l43 -6q16 -2 34.5 -15.5t35.5 -45.5q10 -25 14 -62q0 -35 -16 -61 q-13 -27 -42.5 -42.5t-66.5 -19.5q-22 0 -65 19q-35 18 -48 63z" />
<glyph unicode="&#x1eb8;" horiz-adv-x="1200" d="M75 0v121h141v1276h-141v123h866h35h74l41 8l131 -295l-96 -45q-95 139 -196 174t-300 35h-100v-445h471v131h125v-421h-125v151h-471v-692h37q235 0 345.5 52t166.5 122l65 84l18 37l97 -47l-180 -387l-50 14l-77 4h-877zM555 -236q0 34 17.5 64t54.5 46l45 6l43 -6 q16 -2 34.5 -15.5t34.5 -45.5q11 -25 15 -62q0 -35 -17 -61q-12 -27 -41.5 -42.5t-66.5 -19.5q-23 0 -66 19q-35 18 -47 63z" />
<glyph unicode="&#x1eb9;" horiz-adv-x="1099" d="M65 502q0 184 96.5 319t213 189.5t233.5 54.5l100 -8q39 0 79 -18.5t89 -53.5q90 -61 129 -145l53 -113l21 -65l-701 -267q49 -112 137.5 -177.5t180.5 -65.5q80 0 149.5 31.5t151.5 119.5l84 -70q-103 -131 -239 -202.5t-265 -71.5l-35 2l-90 10q-35 0 -79 20.5 t-95 57.5q-98 70 -156 201q-28 67 -42.5 127.5t-14.5 124.5zM327 637q0 -68 14 -117l455 172l-14 56q-6 24 -27 49q-90 129 -194 129q-50 0 -93 -16.5t-75.5 -61.5t-51.5 -96q-6 -27 -10 -53.5t-4 -61.5zM449 -236q0 34 17.5 64t54.5 46l45 6l43 -6q17 -2 35 -15.5t35 -45.5 q10 -25 14 -62q0 -35 -16 -61q-13 -27 -42.5 -42.5t-66.5 -19.5q-22 0 -65 19q-35 18 -47 63z" />
<glyph unicode="&#x1eba;" horiz-adv-x="1200" d="M75 0v121h141v1276h-141v123h866h35h74l41 8l131 -295l-96 -45q-95 139 -196 174t-300 35h-100v-445h471v131h125v-421h-125v151h-471v-692h37q235 0 345.5 52t166.5 122l65 84l18 37l97 -47l-180 -387l-50 14l-77 4h-877zM623 2120l105 108q67 -54 99 -109.5t32 -113.5 q0 -61 -33 -141l-8 -33q-13 -37 -13 -59q0 -16 11 -36l20 -44l-106 -99q-50 43 -73.5 87t-23.5 83q0 43 27 106l14 32q21 49 21 81q0 68 -72 138z" />
<glyph unicode="&#x1ebb;" horiz-adv-x="1099" d="M65 502q0 184 96.5 319t213 189.5t233.5 54.5l100 -8q39 0 79 -18.5t89 -53.5q90 -61 129 -145l53 -113l21 -65l-701 -267q49 -112 137.5 -177.5t180.5 -65.5q80 0 149.5 31.5t151.5 119.5l84 -70q-103 -131 -239 -202.5t-265 -71.5l-35 2l-90 10q-35 0 -79 20.5 t-95 57.5q-98 70 -156 201q-28 67 -42.5 127.5t-14.5 124.5zM327 637q0 -68 14 -117l455 172l-14 56q-6 24 -27 49q-90 129 -194 129q-50 0 -93 -16.5t-75.5 -61.5t-51.5 -96q-6 -27 -10 -53.5t-4 -61.5zM665 1657l105 108q67 -54 99 -109.5t32 -113.5q0 -61 -33 -141 l-8 -33q-12 -37 -12 -59q0 -16 10 -36l20 -44l-106 -99q-49 43 -72.5 87t-23.5 83q0 43 26 106l15 32q20 49 20 81q0 68 -72 138z" />
<glyph unicode="&#x1ebc;" horiz-adv-x="1200" d="M75 0v121h141v1276h-141v123h866h35h74l41 8l131 -295l-96 -45q-95 139 -196 174t-300 35h-100v-445h471v131h125v-421h-125v151h-471v-692h37q235 0 345.5 52t166.5 122l65 84l18 37l97 -47l-180 -387l-50 14l-77 4h-877zM306 1733q50 49 100 72.5t95 23.5q49 0 121 -27 l37 -14q55 -21 92 -21q78 0 158 72l122 -104q-61 -68 -124.5 -99.5t-129.5 -31.5q-69 0 -161 32l-37 9q-43 12 -68 12q-18 0 -41 -10l-51 -21z" />
<glyph unicode="&#x1ebd;" horiz-adv-x="1099" d="M65 502q0 184 96.5 319t213 189.5t233.5 54.5l100 -8q39 0 79 -18.5t89 -53.5q90 -61 129 -145l53 -113l21 -65l-701 -267q49 -112 137.5 -177.5t180.5 -65.5q80 0 149.5 31.5t151.5 119.5l84 -70q-103 -131 -239 -202.5t-265 -71.5l-35 2l-90 10q-35 0 -79 20.5 t-95 57.5q-98 70 -156 201q-28 67 -42.5 127.5t-14.5 124.5zM202 1274q17 16 48.5 38.5t50.5 33.5q45 22 96 22l55 -6l66 -19l34 -14q62 -20 95 -20q75 0 159 71l121 -104q-61 -68 -123.5 -99.5t-128.5 -31.5q-73 0 -166 33l-36 10l-62 8q-22 0 -53 -12l-43 -17zM327 637 q0 -68 14 -117l455 172l-14 56q-6 24 -27 49q-90 129 -194 129q-50 0 -93 -16.5t-75.5 -61.5t-51.5 -96q-6 -27 -10 -53.5t-4 -61.5z" />
<glyph unicode="&#x1ebe;" horiz-adv-x="1200" d="M75 0v121h141v1276h-141v123h866h35h74l41 8l131 -295l-96 -45q-95 139 -196 174t-300 35h-100v-445h471v131h125v-421h-125v151h-471v-692h37q235 0 345.5 52t166.5 122l65 84l18 37l97 -47l-180 -387l-50 14l-77 4h-877zM268 1696l352 213l354 -213l-125 -101l-221 146 l-238 -146zM815 1938l330 240l84 -158l-352 -195z" />
<glyph unicode="&#x1ebf;" horiz-adv-x="1099" d="M65 502q0 184 96.5 319t213 189.5t233.5 54.5l100 -8q39 0 79 -18.5t89 -53.5q90 -61 129 -145l53 -113l21 -65l-701 -267q49 -112 137.5 -177.5t180.5 -65.5q80 0 149.5 31.5t151.5 119.5l84 -70q-103 -131 -239 -202.5t-265 -71.5l-35 2l-90 10q-35 0 -79 20.5 t-95 57.5q-98 70 -156 201q-28 67 -42.5 127.5t-14.5 124.5zM266 1257l352 213l354 -213l-125 -100l-219 146l-239 -146zM327 637q0 -68 14 -117l455 172l-14 56q-6 24 -27 49q-90 129 -194 129q-50 0 -93 -16.5t-75.5 -61.5t-51.5 -96q-6 -27 -10 -53.5t-4 -61.5zM816 1508 l329 240l84 -158l-352 -195z" />
<glyph unicode="&#x1ec0;" horiz-adv-x="1200" d="M75 0v121h141v1276h-141v123h866h35h74l41 8l131 -295l-96 -45q-95 139 -196 174t-300 35h-100v-445h471v131h125v-421h-125v151h-471v-692h37q235 0 345.5 52t166.5 122l65 84l18 37l97 -47l-180 -387l-50 14l-77 4h-877zM268 1696l352 213l354 -213l-125 -101l-221 146 l-238 -146zM490 2060l84 158l330 -240l-61 -113z" />
<glyph unicode="&#x1ec1;" horiz-adv-x="1099" d="M65 502q0 184 96.5 319t213 189.5t233.5 54.5l100 -8q39 0 79 -18.5t89 -53.5q90 -61 129 -145l53 -113l21 -65l-701 -267q49 -112 137.5 -177.5t180.5 -65.5q80 0 149.5 31.5t151.5 119.5l84 -70q-103 -131 -239 -202.5t-265 -71.5l-35 2l-90 10q-35 0 -79 20.5 t-95 57.5q-98 70 -156 201q-28 67 -42.5 127.5t-14.5 124.5zM266 1257l352 213l354 -213l-125 -100l-219 146l-239 -146zM327 637q0 -68 14 -117l455 172l-14 56q-6 24 -27 49q-90 129 -194 129q-50 0 -93 -16.5t-75.5 -61.5t-51.5 -96q-6 -27 -10 -53.5t-4 -61.5zM491 1630 l84 158l329 -240l-61 -113z" />
<glyph unicode="&#x1ec2;" horiz-adv-x="1200" d="M75 0v121h141v1276h-141v123h866h35h74l41 8l131 -295l-96 -45q-95 139 -196 174t-300 35h-100v-445h471v131h125v-421h-125v151h-471v-692h37q235 0 345.5 52t166.5 122l65 84l18 37l97 -47l-180 -387l-50 14l-77 4h-877zM268 1696l352 213l354 -213l-125 -101l-221 146 l-238 -146zM746 2357l105 108q67 -54 99 -109.5t32 -113.5q0 -61 -33 -141l-8 -33q-13 -37 -13 -59q0 -16 11 -36l20 -44l-106 -99q-50 43 -73.5 87t-23.5 83q0 43 27 106l14 32q21 49 21 81q0 68 -72 138z" />
<glyph unicode="&#x1ec3;" horiz-adv-x="1099" d="M65 502q0 184 96.5 319t213 189.5t233.5 54.5l100 -8q39 0 79 -18.5t89 -53.5q90 -61 129 -145l53 -113l21 -65l-701 -267q49 -112 137.5 -177.5t180.5 -65.5q80 0 149.5 31.5t151.5 119.5l84 -70q-103 -131 -239 -202.5t-265 -71.5l-35 2l-90 10q-35 0 -79 20.5 t-95 57.5q-98 70 -156 201q-28 67 -42.5 127.5t-14.5 124.5zM266 1257l352 213l354 -213l-125 -100l-219 146l-239 -146zM327 637q0 -68 14 -117l455 172l-14 56q-6 24 -27 49q-90 129 -194 129q-50 0 -93 -16.5t-75.5 -61.5t-51.5 -96q-6 -27 -10 -53.5t-4 -61.5zM735 1927 l105 108q67 -54 99 -109.5t32 -113.5q0 -61 -33 -141l-8 -33q-12 -37 -12 -59q0 -16 10 -36l20 -44l-106 -99q-49 43 -72.5 87t-23.5 83q0 43 26 106l15 32q20 49 20 81q0 68 -72 138z" />
<glyph unicode="&#x1ec4;" horiz-adv-x="1200" d="M75 0v121h141v1276h-141v123h866h35h74l41 8l131 -295l-96 -45q-95 139 -196 174t-300 35h-100v-445h471v131h125v-421h-125v151h-471v-692h37q235 0 345.5 52t166.5 122l65 84l18 37l97 -47l-180 -387l-50 14l-77 4h-877zM268 1696l352 213l354 -213l-125 -101l-221 146 l-238 -146zM401 2037q50 49 100 72.5t95 23.5q49 0 121 -27l37 -14q55 -21 92 -21q78 0 158 72l122 -104q-61 -68 -124.5 -99.5t-129.5 -31.5q-69 0 -161 32l-37 9q-43 12 -68 12q-18 0 -41 -10l-51 -21z" />
<glyph unicode="&#x1ec5;" horiz-adv-x="1099" d="M65 502q0 184 96.5 319t213 189.5t233.5 54.5l100 -8q39 0 79 -18.5t89 -53.5q90 -61 129 -145l53 -113l21 -65l-701 -267q49 -112 137.5 -177.5t180.5 -65.5q80 0 149.5 31.5t151.5 119.5l84 -70q-103 -131 -239 -202.5t-265 -71.5l-35 2l-90 10q-35 0 -79 20.5 t-95 57.5q-98 70 -156 201q-28 67 -42.5 127.5t-14.5 124.5zM266 1257l352 213l354 -213l-125 -100l-219 146l-239 -146zM327 637q0 -68 14 -117l455 172l-14 56q-6 24 -27 49q-90 129 -194 129q-50 0 -93 -16.5t-75.5 -61.5t-51.5 -96q-6 -27 -10 -53.5t-4 -61.5zM392 1606 q49 49 99 72.5t95 23.5q49 0 121 -27l37 -14q55 -21 92 -21q78 0 158 72l123 -104q-62 -68 -125.5 -99.5t-128.5 -31.5q-70 0 -162 32l-37 9q-43 12 -68 12q-18 0 -41 -10l-51 -21z" />
<glyph unicode="&#x1ec6;" horiz-adv-x="1200" d="M75 0v121h141v1276h-141v123h866h35h74l41 8l131 -295l-96 -45q-95 139 -196 174t-300 35h-100v-445h471v131h125v-421h-125v151h-471v-692h37q235 0 345.5 52t166.5 122l65 84l18 37l97 -47l-180 -387l-50 14l-77 4h-877zM268 1696l352 213l354 -213l-125 -101l-221 146 l-238 -146zM555 -236q0 34 17.5 64t54.5 46l45 6l43 -6q16 -2 34.5 -15.5t34.5 -45.5q11 -25 15 -62q0 -35 -17 -61q-12 -27 -41.5 -42.5t-66.5 -19.5q-23 0 -66 19q-35 18 -47 63z" />
<glyph unicode="&#x1ec7;" horiz-adv-x="1099" d="M65 502q0 184 96.5 319t213 189.5t233.5 54.5l100 -8q39 0 79 -18.5t89 -53.5q90 -61 129 -145l53 -113l21 -65l-701 -267q49 -112 137.5 -177.5t180.5 -65.5q80 0 149.5 31.5t151.5 119.5l84 -70q-103 -131 -239 -202.5t-265 -71.5l-35 2l-90 10q-35 0 -79 20.5 t-95 57.5q-98 70 -156 201q-28 67 -42.5 127.5t-14.5 124.5zM266 1257l352 213l354 -213l-125 -100l-219 146l-239 -146zM327 637q0 -68 14 -117l455 172l-14 56q-6 24 -27 49q-90 129 -194 129q-50 0 -93 -16.5t-75.5 -61.5t-51.5 -96q-6 -27 -10 -53.5t-4 -61.5zM449 -236 q0 34 17.5 64t54.5 46l45 6l43 -6q17 -2 35 -15.5t35 -45.5q10 -25 14 -62q0 -35 -16 -61q-13 -27 -42.5 -42.5t-66.5 -19.5q-22 0 -65 19q-35 18 -47 63z" />
<glyph unicode="&#x1ec8;" horiz-adv-x="704" d="M75 0v121h141v1276h-141v123h594v-123h-139v-1276h139v-121h-594zM277 2161l105 108q67 -54 99 -109.5t32 -113.5q0 -61 -33 -141l-8 -33q-13 -37 -13 -59q0 -16 11 -36l20 -44l-106 -99q-50 43 -73.5 87t-23.5 83q0 43 27 106l14 32q21 49 21 81q0 68 -72 138z" />
<glyph unicode="&#x1ec9;" horiz-adv-x="620" d="M79 0v102h113v727l-113 -28v121l401 127l-8 -58l-2 -39v-850h117v-102h-508zM246 1657l104 108q68 -54 100 -109.5t32 -113.5q0 -61 -33 -141l-8 -33q-13 -37 -13 -59q0 -16 11 -36l20 -44l-106 -99q-50 43 -73.5 87t-23.5 83q0 43 27 106l14 32q21 49 21 81 q0 68 -72 138z" />
<glyph unicode="&#x1eca;" horiz-adv-x="704" d="M75 0v121h141v1276h-141v123h594v-123h-139v-1276h139v-121h-594zM250 -236q0 34 17.5 64t54.5 46l45 6l43 -6q16 -2 34.5 -15.5t34.5 -45.5q11 -25 15 -62q0 -35 -17 -61q-12 -27 -41.5 -42.5t-66.5 -19.5q-23 0 -66 19q-34 18 -47 63z" />
<glyph unicode="&#x1ecb;" horiz-adv-x="620" d="M79 0v102h113v727l-113 -28v121l401 127l-8 -58l-2 -39v-850h117v-102h-508zM159 1300q0 127 123 164l30 4q60 0 108 -42t48 -117l-6 -64q-6 -47 -88 -86q-16 -6 -26.5 -8t-37.5 -2l-41 4q-18 2 -65 33q-21 14 -33 42.5t-12 71.5zM197 -236q0 34 17.5 64t54.5 46l45 6 l43 -6q16 -2 34.5 -15.5t34.5 -45.5q11 -25 15 -62q0 -35 -17 -61q-12 -27 -41.5 -42.5t-66.5 -19.5q-23 0 -66 19q-35 18 -47 63z" />
<glyph unicode="&#x1ecc;" d="M69 748q0 47 6 97t10 83q17 131 120.5 282.5t246.5 227.5q135 65 209 88q35 10 74 17t61 11l117 7q170 0 331.5 -61.5t268 -188.5t157 -280.5t50.5 -301.5q0 -115 -43 -257t-182.5 -285.5t-292.5 -188.5q-70 -21 -148 -33t-151 -12q-162 0 -309.5 44t-271.5 147.5 t-190 271.5q-30 84 -46.5 167t-16.5 165zM391 862q0 -170 62 -349t154.5 -264t178.5 -122q80 -31 157 -31q37 0 68 4t84 19q88 24 161 99t105 167q29 90 37 150l8 122q0 152 -47 300.5t-131 251t-186.5 150.5t-194.5 48h-24l-35 -6l-37 -6l-59 -17q-131 -49 -196 -155.5 t-87 -204.5q-18 -96 -18 -156zM772 -236q0 34 17.5 64t54.5 46l45 6l43 -6q17 -2 35 -15.5t35 -45.5q10 -25 14 -62q0 -35 -16 -61q-12 -27 -42 -42.5t-67 -19.5q-22 0 -65 19q-35 18 -47 63z" />
<glyph unicode="&#x1ecd;" horiz-adv-x="1236" d="M71 520l8 105q0 67 68.5 181t186.5 175t226 80l54 4q116 0 255.5 -47t219.5 -136t110 -184q17 -51 25 -93t8 -95q0 -66 -8 -100l-31 -115q-18 -78 -108 -168q-82 -82 -207 -125t-217 -43q-113 0 -211 32t-190.5 104.5t-143.5 191.5q-45 123 -45 233zM352 629 q0 -135 48 -277.5t109 -191.5q62 -45 103 -58q47 -10 82 -10q53 0 96 14q69 31 111 99.5t42 132.5v43q0 68 -10 132.5t-35 145.5q-43 150 -102 196t-104.5 60.5t-83.5 14.5q-58 0 -117.5 -25.5t-90 -82t-46.5 -150.5zM530 -236q0 34 17.5 64t53.5 46l45 6l43 -6 q17 -2 35.5 -15.5t34.5 -45.5q10 -25 14 -62q0 -35 -16 -61q-12 -27 -42 -42.5t-66 -19.5q-23 0 -66 19q-35 18 -47 63z" />
<glyph unicode="&#x1ece;" d="M69 752q0 49 6 98t10 80q17 129 121.5 282.5t239.5 220t217 93.5l133 28l117 7q170 0 332.5 -60.5t269 -188.5t157 -283t50.5 -304q0 -121 -44 -260t-183.5 -280.5t-292.5 -186.5q-70 -21 -148 -33t-151 -12q-162 0 -311.5 44t-270.5 147.5t-189 271.5q-30 86 -46.5 169 t-16.5 167zM391 864q0 -168 65.5 -349t155.5 -265t174 -123q80 -31 157 -31q37 0 68 4t84 19q88 24 163 101t111 196q19 59 29 117.5t10 121.5q0 156 -51 306.5t-133 250t-183.5 147.5t-191.5 48h-24l-39 -8l-53 -6l-41 -15q-131 -49 -196 -155.5t-87 -204.5 q-18 -96 -18 -154zM1015 2161l104 108q68 -54 99.5 -109.5t31.5 -113.5q0 -61 -33 -141l-8 -33q-12 -37 -12 -59q0 -16 10 -36l21 -44l-107 -99q-49 43 -72.5 87t-23.5 83q0 43 26 106l15 32q20 49 20 81q0 68 -71 138z" />
<glyph unicode="&#x1ecf;" horiz-adv-x="1236" d="M71 520l8 105q0 67 68.5 181t186.5 175t226 80l54 4q116 0 255.5 -47t219.5 -136t110 -184q17 -51 25 -93t8 -95q0 -66 -8 -100l-31 -115q-18 -78 -108 -168q-82 -82 -207 -125t-217 -43q-113 0 -211 32t-190.5 104.5t-143.5 191.5q-45 123 -45 233zM352 629 q0 -135 48 -277.5t109 -191.5q62 -45 103 -58q47 -10 82 -10q53 0 96 14q69 31 111 99.5t42 132.5v43q0 68 -10 132.5t-35 145.5q-43 150 -102 196t-104.5 60.5t-83.5 14.5q-58 0 -117.5 -25.5t-90 -82t-46.5 -150.5zM665 1657l105 108q67 -54 99 -109.5t32 -113.5 q0 -61 -33 -141l-8 -33q-12 -37 -12 -59q0 -16 10 -36l20 -44l-106 -99q-49 43 -73 87t-24 83q0 43 27 106l14 32q21 49 21 81q0 68 -72 138z" />
<glyph unicode="&#x1ed0;" d="M69 752q0 49 6 98t10 80q17 129 121.5 282.5t239.5 220t217 93.5l133 28l117 7q170 0 332.5 -60.5t269 -188.5t157 -283t50.5 -304q0 -121 -44 -260t-183.5 -280.5t-292.5 -186.5q-70 -21 -148 -33t-151 -12q-162 0 -311.5 44t-270.5 147.5t-189 271.5q-30 86 -46.5 169 t-16.5 167zM391 864q0 -168 65.5 -349t155.5 -265t174 -123q80 -31 157 -31q37 0 68 4t84 19q88 24 163 101t111 196q19 59 29 117.5t10 121.5q0 156 -51 306.5t-133 250t-183.5 147.5t-191.5 48h-24l-39 -8l-53 -6l-41 -15q-131 -49 -196 -155.5t-87 -204.5 q-18 -96 -18 -154zM538 1722l350 211l357 -211l-123 -100l-224 143l-237 -143zM1082 1959l330 240l84 -158l-353 -195z" />
<glyph unicode="&#x1ed1;" horiz-adv-x="1236" d="M65 563q12 139 77.5 248t183.5 170t226 80l54 4q116 0 255.5 -47t219.5 -136t110 -184q17 -51 25 -93t8 -95q0 -66 -8 -100l-29 -115q-18 -82 -104 -166t-213 -129q-64 -20 -115 -30.5t-102 -10.5q-113 0 -212.5 32t-193.5 106.5t-141 205.5q-21 66 -31 128.5t-10 131.5z M272 1266l352 213l354 -213l-125 -101l-221 146l-237 -146zM344 629q0 -135 48 -275.5t109 -193.5q62 -45 103 -58q47 -10 82 -10q53 0 96 14q71 31 106 97q37 61 43 108l6 76q0 133 -44 276.5t-106.5 192.5t-105.5 61.5t-81 12.5q-58 0 -117.5 -25.5t-90 -82t-46.5 -150.5z M816 1508l329 240l84 -158l-352 -195z" />
<glyph unicode="&#x1ed2;" d="M69 752q0 49 6 98t10 80q17 129 121.5 282.5t239.5 220t217 93.5l133 28l117 7q170 0 332.5 -60.5t269 -188.5t157 -283t50.5 -304q0 -121 -44 -260t-183.5 -280.5t-292.5 -186.5q-70 -21 -148 -33t-151 -12q-162 0 -311.5 44t-270.5 147.5t-189 271.5q-30 86 -46.5 169 t-16.5 167zM391 864q0 -168 65.5 -349t155.5 -265t174 -123q80 -31 157 -31q37 0 68 4t84 19q88 24 163 101t111 196q19 59 29 117.5t10 121.5q0 156 -51 306.5t-133 250t-183.5 147.5t-191.5 48h-24l-39 -8l-53 -6l-41 -15q-131 -49 -196 -155.5t-87 -204.5 q-18 -96 -18 -154zM538 1722l350 211l357 -211l-123 -100l-224 143l-237 -143zM757 2081l84 158l329 -240l-61 -113z" />
<glyph unicode="&#x1ed3;" horiz-adv-x="1236" d="M65 563q12 139 77.5 248t183.5 170t226 80l54 4q116 0 255.5 -47t219.5 -136t110 -184q17 -51 25 -93t8 -95q0 -66 -8 -100l-29 -115q-18 -82 -104 -166t-213 -129q-64 -20 -115 -30.5t-102 -10.5q-113 0 -212.5 32t-193.5 106.5t-141 205.5q-21 66 -31 128.5t-10 131.5z M272 1266l352 213l354 -213l-125 -101l-221 146l-237 -146zM344 629q0 -135 48 -275.5t109 -193.5q62 -45 103 -58q47 -10 82 -10q53 0 96 14q71 31 106 97q37 61 43 108l6 76q0 133 -44 276.5t-106.5 192.5t-105.5 61.5t-81 12.5q-58 0 -117.5 -25.5t-90 -82t-46.5 -150.5z M491 1630l84 158l329 -240l-61 -113z" />
<glyph unicode="&#x1ed4;" d="M69 752q0 49 6 98t10 80q17 129 121.5 282.5t239.5 220t217 93.5l133 28l117 7q170 0 332.5 -60.5t269 -188.5t157 -283t50.5 -304q0 -121 -44 -260t-183.5 -280.5t-292.5 -186.5q-70 -21 -148 -33t-151 -12q-162 0 -311.5 44t-270.5 147.5t-189 271.5q-30 86 -46.5 169 t-16.5 167zM391 864q0 -168 65.5 -349t155.5 -265t174 -123q80 -31 157 -31q37 0 68 4t84 19q88 24 163 101t111 196q19 59 29 117.5t10 121.5q0 156 -51 306.5t-133 250t-183.5 147.5t-191.5 48h-24l-39 -8l-53 -6l-41 -15q-131 -49 -196 -155.5t-87 -204.5 q-18 -96 -18 -154zM538 1722l350 211l357 -211l-123 -100l-224 143l-237 -143zM1012 2378l104 108q68 -54 99.5 -109.5t31.5 -113.5q0 -61 -33 -141l-8 -33q-12 -37 -12 -59q0 -16 10 -36l21 -44l-107 -99q-49 43 -72.5 87t-23.5 83q0 43 26 106l15 32q20 49 20 81 q0 68 -71 138z" />
<glyph unicode="&#x1ed5;" horiz-adv-x="1236" d="M65 563q12 139 77.5 248t183.5 170t226 80l54 4q116 0 255.5 -47t219.5 -136t110 -184q17 -51 25 -93t8 -95q0 -66 -8 -100l-29 -115q-18 -82 -104 -166t-213 -129q-64 -20 -115 -30.5t-102 -10.5q-113 0 -212.5 32t-193.5 106.5t-141 205.5q-21 66 -31 128.5t-10 131.5z M272 1266l352 213l354 -213l-125 -101l-221 146l-237 -146zM344 629q0 -135 48 -275.5t109 -193.5q62 -45 103 -58q47 -10 82 -10q53 0 96 14q71 31 106 97q37 61 43 108l6 76q0 133 -44 276.5t-106.5 192.5t-105.5 61.5t-81 12.5q-58 0 -117.5 -25.5t-90 -82t-46.5 -150.5z M735 1927l105 108q67 -54 99 -109.5t32 -113.5q0 -61 -33 -141l-8 -33q-12 -37 -12 -59q0 -16 10 -36l20 -44l-106 -99q-49 43 -72.5 87t-23.5 83q0 43 26 106l15 32q20 49 20 81q0 68 -72 138z" />
<glyph unicode="&#x1ed6;" d="M69 752q0 49 6 98t10 80q17 129 121.5 282.5t239.5 220t217 93.5l133 28l117 7q170 0 332.5 -60.5t269 -188.5t157 -283t50.5 -304q0 -121 -44 -260t-183.5 -280.5t-292.5 -186.5q-70 -21 -148 -33t-151 -12q-162 0 -311.5 44t-270.5 147.5t-189 271.5q-30 86 -46.5 169 t-16.5 167zM391 864q0 -168 65.5 -349t155.5 -265t174 -123q80 -31 157 -31q37 0 68 4t84 19q88 24 163 101t111 196q19 59 29 117.5t10 121.5q0 156 -51 306.5t-133 250t-183.5 147.5t-191.5 48h-24l-39 -8l-53 -6l-41 -15q-131 -49 -196 -155.5t-87 -204.5 q-18 -96 -18 -154zM538 1722l350 211l357 -211l-123 -100l-224 143l-237 -143zM667 2058q49 49 99 72.5t95 23.5q50 0 121 -27l37 -14q55 -21 92 -21q78 0 158 72l123 -104q-62 -68 -125.5 -99.5t-128.5 -31.5q-70 0 -162 32l-37 9q-43 12 -67 12q-19 0 -41 -10l-51 -21z " />
<glyph unicode="&#x1ed7;" horiz-adv-x="1236" d="M65 563q12 139 77.5 248t183.5 170t226 80l54 4q116 0 255.5 -47t219.5 -136t110 -184q17 -51 25 -93t8 -95q0 -66 -8 -100l-29 -115q-18 -82 -104 -166t-213 -129q-64 -20 -115 -30.5t-102 -10.5q-113 0 -212.5 32t-193.5 106.5t-141 205.5q-21 66 -31 128.5t-10 131.5z M272 1266l352 213l354 -213l-125 -101l-221 146l-237 -146zM344 629q0 -135 48 -275.5t109 -193.5q62 -45 103 -58q47 -10 82 -10q53 0 96 14q71 31 106 97q37 61 43 108l6 76q0 133 -44 276.5t-106.5 192.5t-105.5 61.5t-81 12.5q-58 0 -117.5 -25.5t-90 -82t-46.5 -150.5z M392 1606q49 49 99 72.5t95 23.5q49 0 121 -27l37 -14q55 -21 92 -21q78 0 158 72l123 -104q-62 -68 -125.5 -99.5t-128.5 -31.5q-70 0 -162 32l-37 9q-43 12 -68 12q-18 0 -41 -10l-51 -21z" />
<glyph unicode="&#x1ed8;" d="M69 752q0 49 6 98t10 80q17 129 121.5 282.5t239.5 220t217 93.5l133 28l117 7q170 0 332.5 -60.5t269 -188.5t157 -283t50.5 -304q0 -121 -44 -260t-183.5 -280.5t-292.5 -186.5q-70 -21 -148 -33t-151 -12q-162 0 -311.5 44t-270.5 147.5t-189 271.5q-30 86 -46.5 169 t-16.5 167zM391 864q0 -168 65.5 -349t155.5 -265t174 -123q80 -31 157 -31q37 0 68 4t84 19q88 24 163 101t111 196q19 59 29 117.5t10 121.5q0 156 -51 306.5t-133 250t-183.5 147.5t-191.5 48h-24l-39 -8l-53 -6l-41 -15q-131 -49 -196 -155.5t-87 -204.5 q-18 -96 -18 -154zM538 1722l350 211l357 -211l-123 -100l-224 143l-237 -143zM772 -236q0 34 17.5 64t54.5 46l45 6l43 -6q17 -2 35 -15.5t35 -45.5q10 -25 14 -62q0 -35 -16 -61q-12 -27 -42 -42.5t-67 -19.5q-22 0 -65 19q-35 18 -47 63z" />
<glyph unicode="&#x1ed9;" horiz-adv-x="1236" d="M65 563q12 139 77.5 248t183.5 170t226 80l54 4q116 0 255.5 -47t219.5 -136t110 -184q17 -51 25 -93t8 -95q0 -66 -8 -100l-29 -115q-18 -82 -104 -166t-213 -129q-64 -20 -115 -30.5t-102 -10.5q-113 0 -212.5 32t-193.5 106.5t-141 205.5q-21 66 -31 128.5t-10 131.5z M272 1266l352 213l354 -213l-125 -101l-221 146l-237 -146zM344 629q0 -135 48 -275.5t109 -193.5q62 -45 103 -58q47 -10 82 -10q53 0 96 14q71 31 106 97q37 61 43 108l6 76q0 133 -44 276.5t-106.5 192.5t-105.5 61.5t-81 12.5q-58 0 -117.5 -25.5t-90 -82t-46.5 -150.5z M530 -236q0 34 17.5 64t54.5 46l45 6l43 -6q16 -2 34.5 -15.5t34.5 -45.5q11 -25 15 -62q0 -35 -17 -61q-12 -27 -41.5 -42.5t-66.5 -19.5q-23 0 -66 19q-35 18 -47 63z" />
<glyph unicode="&#x1eda;" d="M69 748q0 47 6.5 97t10.5 83q16 131 119.5 282.5t246.5 227.5q136 65 209 88q35 10 74 17t61 11l117 7q170 0 332 -61q115 -44 202 -121l59 11v98l-2 56l-5 51l244 49v-86l-49 -14v-262l-137 -27q74 -104 113 -224q50 -154 50 -302q0 -115 -43 -257t-182 -285.5 t-293 -188.5q-70 -21 -147.5 -33t-151.5 -12q-162 0 -309.5 44t-271.5 147.5t-189 271.5q-31 84 -47.5 167t-16.5 165zM391 862q0 -170 62.5 -349t154.5 -264t178 -122q80 -31 158 -31q37 0 67.5 4t83.5 19q89 24 161.5 99t105.5 167q28 90 37 150l8 122q0 152 -47 300.5 t-131 251t-186.5 150.5t-194.5 48h-25l-35 -6l-37 -6l-59 -17q-131 -49 -195.5 -155.5t-87.5 -204.5q-18 -96 -18 -156zM672 1743l329 239l84 -157l-352 -195z" />
<glyph unicode="&#x1edb;" horiz-adv-x="1247" d="M65 563q12 139 77.5 248t183 170t226.5 80l53 4q117 0 256 -47q134 -45 213 -130l61 12v149l181 39v-86l-49 -14v-206l-102 -21q16 -31 26 -63q16 -51 24.5 -93t8.5 -95q0 -66 -8 -100l-29 -115q-19 -82 -105 -166t-213 -129q-63 -20 -114 -30.5t-103 -10.5 q-112 0 -211.5 32t-193.5 106.5t-142 205.5q-20 66 -30 128.5t-10 131.5zM343 629q0 -135 48 -275.5t110 -193.5q61 -45 102 -58q47 -10 82 -10q53 0 96 14q72 31 107 97q37 61 43 108l6 76q0 133 -44 276.5t-106.5 192.5t-105.5 61.5t-82 12.5q-57 0 -116.5 -25.5 t-90.5 -82t-47 -150.5zM380 1276l328 244l86 -160l-353 -195z" />
<glyph unicode="&#x1edc;" d="M69 752q0 49 6.5 98t10.5 80q16 129 120.5 282.5t239.5 220t217 93.5l133 28l117 7q170 0 333 -60q117 -44 205 -123l61 12v98l-2 56l-5 51l244 49v-86l-49 -14v-262l-140 -28q73 -104 112 -225q50 -155 50 -304q0 -121 -44 -260t-183.5 -280.5t-292.5 -186.5 q-70 -21 -147.5 -33t-151.5 -12q-162 0 -311.5 44t-270.5 147.5t-188 271.5q-31 86 -47.5 169t-16.5 167zM391 864q0 -168 65.5 -349t155.5 -265t174 -123q80 -31 158 -31q37 0 67.5 4t83.5 19q88 24 163 101t112 196q18 59 28.5 117.5t10.5 121.5q0 156 -51.5 306.5 t-133.5 250t-183 147.5t-191 48h-25l-39 -8l-53 -6l-41 -15q-131 -49 -195.5 -155.5t-87.5 -204.5q-18 -96 -18 -154zM716 1825l86 157l328 -239l-61 -113z" />
<glyph unicode="&#x1edd;" horiz-adv-x="1247" d="M65 563q12 139 77.5 248t183 170t226.5 80l53 4q117 0 256 -47q134 -45 213 -130l61 12v149l181 39v-86l-49 -14v-206l-102 -21q16 -31 26 -63q16 -51 24.5 -93t8.5 -95q0 -66 -8 -100l-29 -115q-19 -82 -105 -166t-213 -129q-63 -20 -114 -30.5t-103 -10.5 q-112 0 -211.5 32t-193.5 106.5t-142 205.5q-20 66 -30 128.5t-10 131.5zM343 629q0 -135 48 -275.5t110 -193.5q61 -45 102 -58q47 -10 82 -10q53 0 96 14q72 31 107 97q37 61 43 108l6 76q0 133 -44 276.5t-106.5 192.5t-105.5 61.5t-82 12.5q-57 0 -116.5 -25.5 t-90.5 -82t-47 -150.5zM421 1356l84 157l328 -241l-60 -113z" />
<glyph unicode="&#x1ede;" d="M69 752q0 49 6.5 98t10.5 80q16 129 120.5 282.5t239.5 220t217 93.5l133 28l117 7q170 0 333 -60q117 -44 205 -123l61 12v98l-2 56l-5 51l244 49v-86l-49 -14v-262l-140 -28q73 -104 112 -225q50 -155 50 -304q0 -121 -44 -260t-183.5 -280.5t-292.5 -186.5 q-70 -21 -147.5 -33t-151.5 -12q-162 0 -311.5 44t-270.5 147.5t-188 271.5q-31 86 -47.5 169t-16.5 167zM391 864q0 -168 65.5 -349t155.5 -265t174 -123q80 -31 158 -31q37 0 67.5 4t83.5 19q88 24 163 101t112 196q18 59 28.5 117.5t10.5 121.5q0 156 -51.5 306.5 t-133.5 250t-183 147.5t-191 48h-25l-39 -8l-53 -6l-41 -15q-131 -49 -195.5 -155.5t-87.5 -204.5q-18 -96 -18 -154zM1015 2161l104 108q68 -54 99.5 -109.5t31.5 -113.5q0 -61 -32 -141l-9 -33q-12 -37 -12 -59q0 -16 10 -36l21 -44l-107 -99q-49 43 -72.5 87t-23.5 83 q0 43 27 106l14 32q21 49 21 81q0 68 -72 138z" />
<glyph unicode="&#x1edf;" horiz-adv-x="1247" d="M71 520l8 105q0 67 68.5 181t186.5 175t226 80l53 4q117 0 257 -47q133 -45 211 -128l54 10v149l181 39v-86l-49 -14v-206l-95 -19q16 -32 27 -65q17 -51 25 -93t8 -95q0 -66 -8 -100l-31 -115q-18 -78 -109 -168q-81 -82 -206 -125t-217 -43q-113 0 -211.5 32 t-190.5 104.5t-143 191.5q-45 123 -45 233zM351 629q0 -135 48.5 -277.5t109.5 -191.5q61 -45 102 -58q47 -10 82 -10q54 0 97 14q69 31 111 99.5t42 132.5v43q0 68 -10 132.5t-35 145.5q-43 150 -102.5 196t-104.5 60.5t-84 14.5q-57 0 -116.5 -25.5t-90 -82t-47.5 -150.5z M665 1657l104 108q68 -54 99.5 -109.5t31.5 -113.5q0 -61 -32 -141l-9 -33q-12 -37 -12 -59q0 -16 10 -36l21 -44l-107 -99q-49 43 -72.5 87t-23.5 83q0 43 27 106l14 32q21 49 21 81q0 68 -72 138z" />
<glyph unicode="&#x1ee0;" d="M69 748q0 57 15.5 183t119 280.5t244 223t213.5 91.5q35 10 74 17t62 11l116 7q170 0 332 -61q115 -44 202 -121l57 11v98l-2 56l-5 51l244 49v-86l-49 -14v-262l-135 -27q74 -104 113 -224q50 -154 50 -302q0 -115 -43 -257t-182 -285.5t-293 -188.5q-70 -21 -147.5 -33 t-151.5 -12q-162 0 -309.5 44t-271 147.5t-189.5 271.5q-31 84 -47.5 167t-16.5 165zM391 862q0 -170 62.5 -349t154.5 -264t178 -122q80 -31 158 -31q37 0 67.5 4t84.5 19q88 24 160.5 99t105.5 167q28 90 37 150l8 122q0 152 -47 300.5t-131 251t-186.5 150.5t-194.5 48 h-25l-35 -6l-37 -6l-59 -17q-129 -53 -199 -157q-61 -99 -81.5 -199t-20.5 -160zM522 1761q98 99 195 99q49 0 120 -27l37 -14q62 -21 95 -21q73 0 157 72l121 -107q-61 -67 -124.5 -97t-127.5 -30h-45q-22 6 -36.5 9.5t-35 8.5t-45.5 13l-36 10l-68 11q-31 0 -92 -31z" />
<glyph unicode="&#x1ee1;" horiz-adv-x="1247" d="M65 563q12 139 77.5 248t183 170t226.5 80l53 4q117 0 256 -47q134 -45 213 -130l61 12v149l181 39v-86l-49 -14v-206l-102 -21q16 -31 26 -63q16 -51 24.5 -93t8.5 -95q0 -66 -8 -100l-29 -115q-19 -82 -105 -166t-213 -129q-63 -20 -114 -30.5t-103 -10.5 q-112 0 -211.5 32t-193.5 106.5t-142 205.5q-20 66 -30 128.5t-10 131.5zM255 1274q16 16 48 38.5t50 33.5q45 22 97 22l55 -6l65 -19l35 -14q56 -20 92 -20q76 0 160 71l123 -104q-59 -66 -124.5 -98.5t-131.5 -32.5q-70 0 -162 33l-37 10l-61 8q-25 0 -55 -12l-41 -17z M343 629q0 -135 48 -275.5t110 -193.5q61 -45 102 -58q47 -10 82 -10q53 0 96 14q72 31 107 97q37 61 43 108l6 76q0 133 -44 276.5t-106.5 192.5t-105.5 61.5t-82 12.5q-57 0 -116.5 -25.5t-90.5 -82t-47 -150.5z" />
<glyph unicode="&#x1ee2;" d="M69 748q0 47 6.5 97t10.5 83q16 131 119.5 282.5t246.5 227.5q136 65 209 88q35 10 74 17t61 11l117 7q170 0 332 -61q115 -44 202 -121l59 11v98l-2 56l-5 51l244 49v-86l-49 -14v-262l-137 -27q74 -104 113 -224q50 -154 50 -302q0 -115 -43 -257t-182 -285.5 t-293 -188.5q-70 -21 -147.5 -33t-151.5 -12q-162 0 -309.5 44t-271.5 147.5t-189 271.5q-31 84 -47.5 167t-16.5 165zM391 862q0 -170 62.5 -349t154.5 -264t178 -122q80 -31 158 -31q37 0 67.5 4t83.5 19q89 24 161.5 99t105.5 167q28 90 37 150l8 122q0 152 -47 300.5 t-131 251t-186.5 150.5t-194.5 48h-25l-35 -6l-37 -6l-59 -17q-131 -49 -195.5 -155.5t-87.5 -204.5q-18 -96 -18 -156zM773 -236q0 34 17.5 64t54.5 46l45 6l43 -6q16 -2 34.5 -15.5t34.5 -45.5q11 -25 15 -62q0 -35 -17 -61q-12 -27 -41.5 -42.5t-66.5 -19.5q-23 0 -66 19 q-35 18 -47 63z" />
<glyph unicode="&#x1ee3;" horiz-adv-x="1247" d="M71 520l8 105q0 67 68.5 181t186.5 175t226 80l53 4q117 0 257 -47q133 -45 211 -128l54 10v149l181 39v-86l-49 -14v-206l-95 -19q16 -32 27 -65q17 -51 25 -93t8 -95q0 -66 -8 -100l-31 -115q-18 -78 -109 -168q-81 -82 -206 -125t-217 -43q-113 0 -211.5 32 t-190.5 104.5t-143 191.5q-45 123 -45 233zM351 629q0 -135 48.5 -277.5t109.5 -191.5q61 -45 102 -58q47 -10 82 -10q54 0 97 14q69 31 111 99.5t42 132.5v43q0 68 -10 132.5t-35 145.5q-43 150 -102.5 196t-104.5 60.5t-84 14.5q-57 0 -116.5 -25.5t-90 -82t-47.5 -150.5z M529 -236q0 34 17.5 64t54.5 46l45 6l43 -6q17 -2 35 -15.5t35 -45.5q10 -25 14 -62q0 -35 -16 -61q-13 -27 -42.5 -42.5t-66.5 -19.5q-22 0 -65 19q-35 18 -47 63z" />
<glyph unicode="&#x1ee4;" horiz-adv-x="1568" d="M75 1397v123h455v-967q0 -147 22 -231q21 -89 97.5 -130.5t170.5 -41.5l86 6q29 6 89.5 43t87 120.5t26.5 210.5v867h-141v123h455v-1399h125v-121h-435l-10 57l-6 56q-100 -72 -211 -115t-213 -43q-113 0 -243 60.5t-172 179t-42 319.5v883h-141zM732 -236q0 34 17.5 64 t54.5 46l45 6l43 -6q16 -2 34.5 -15.5t35.5 -45.5q10 -25 14 -62q0 -35 -17 -61q-12 -27 -41.5 -42.5t-66.5 -19.5q-23 0 -66 19q-34 18 -47 63z" />
<glyph unicode="&#x1ee5;" horiz-adv-x="1236" d="M79 801v121l401 127l-8 -58l-2 -39v-528q0 -113 9.5 -162t54.5 -82q45 -28 94 -28l33 4l43 12q22 8 62 35.5t63 60.5v565l-113 -28v121l403 127l-6 -45l-2 -52v-850h111v-102h-385l-6 45l-2 57q-95 -65 -192 -104t-177 -39q-68 0 -142.5 37t-100 111.5t-25.5 191.5v49 v481zM530 -236q0 34 17 64t54 46l45 6l43 -6q17 -2 35.5 -15.5t34.5 -45.5q10 -25 14 -62q0 -35 -16 -61q-12 -27 -42 -42.5t-67 -19.5q-22 0 -65 19q-35 18 -47 63z" />
<glyph unicode="&#x1ee6;" horiz-adv-x="1568" d="M75 1397v123h455v-967q0 -147 22 -231q21 -89 97.5 -130.5t170.5 -41.5l86 6q29 6 89.5 43t87 120.5t26.5 210.5v867h-141v123h455v-1399h125v-121h-435l-10 57l-6 56q-100 -72 -211 -115t-213 -43q-113 0 -243 60.5t-172 179t-42 319.5v883h-141zM675 2161l105 108 q67 -54 99 -109.5t32 -113.5q0 -61 -33 -141l-8 -33q-13 -37 -13 -59q0 -16 11 -36l20 -44l-106 -99q-50 43 -73.5 87t-23.5 83q0 43 27 106l14 32q21 49 21 81q0 68 -72 138z" />
<glyph unicode="&#x1ee7;" horiz-adv-x="1236" d="M79 801v121l401 127l-8 -58l-2 -39v-528q0 -113 9.5 -162t54.5 -82q45 -28 94 -28l33 4l43 12q22 8 62 35.5t63 60.5v565l-113 -28v121l403 127l-6 -45l-2 -52v-850h111v-102h-385l-6 45l-2 57q-95 -65 -192 -104t-177 -39q-68 0 -142.5 37t-100 111.5t-25.5 191.5v49 v481zM665 1657l104 108q68 -54 100 -109.5t32 -113.5q0 -61 -33 -141l-8 -33q-13 -37 -13 -59q0 -16 11 -36l20 -44l-106 -99q-50 43 -73.5 87t-23.5 83q0 43 27 106l14 32q21 49 21 81q0 68 -72 138z" />
<glyph unicode="&#x1ee8;" horiz-adv-x="1568" d="M75 1397v123h454v-967q0 -147 23 -231q20 -89 97 -130.5t171 -41.5l86 6q29 6 89.5 43t87 120.5t26.5 210.5v867h-141v123h454v-134l23 4v98l-2 56l-5 51l244 49v-86l-49 -14v-262l-211 -42v-1119h125v-121h-434l-10 57l-6 56q-101 -72 -211.5 -115t-212.5 -43 q-113 0 -243 60.5t-172 179t-42 319.5v883h-141zM554 1706l330 240l86 -158l-353 -195z" />
<glyph unicode="&#x1ee9;" horiz-adv-x="1268" d="M79 801v121l401 127l-8 -58l-2 -39v-528q0 -113 9 -162t55 -82q45 -28 94 -28l33 4l43 12q22 8 62 35.5t62 60.5v565l-112 -28v121l403 127l-6 -45l-2 -52v-61l45 9v149l181 39v-86l-49 -14v-206l-177 -36v-644h111v-102h-385l-7 45l-2 57q-94 -65 -191 -104t-177 -39 q-68 0 -142.5 37t-100 111.5t-25.5 191.5v530zM417 1270l330 241l81 -157l-352 -197z" />
<glyph unicode="&#x1eea;" horiz-adv-x="1568" d="M75 1397v123h454v-967q0 -147 23 -231q20 -89 97 -130.5t171 -41.5l86 6q29 6 89.5 43t87 120.5t26.5 210.5v867h-141v123h454v-134l23 4v98l-2 56l-5 51l244 49v-86l-49 -14v-262l-211 -42v-1119h125v-121h-434l-10 57l-6 56q-101 -72 -211.5 -115t-212.5 -43 q-113 0 -243 60.5t-172 179t-42 319.5v883h-141zM595 1788l84 158l332 -240l-62 -113z" />
<glyph unicode="&#x1eeb;" horiz-adv-x="1268" d="M79 801v121l401 127l-8 -58l-2 -39v-528q0 -113 9 -162t55 -82q45 -28 94 -28l33 4l43 12q22 8 62 35.5t62 60.5v565l-112 -28v121l403 127l-6 -45l-2 -52v-61l45 9v149l181 39v-86l-49 -14v-206l-177 -36v-644h111v-102h-385l-7 45l-2 57q-94 -65 -191 -104t-177 -39 q-68 0 -142.5 37t-100 111.5t-25.5 191.5v530zM505 1360l86 160l330 -244l-62 -111z" />
<glyph unicode="&#x1eec;" horiz-adv-x="1568" d="M75 1397v123h454v-967q0 -147 23 -231q20 -89 97 -130.5t171 -41.5l86 6q29 6 89.5 43t87 120.5t26.5 210.5v867h-141v123h454v-134l23 4v98l-2 56l-5 51l244 49v-86l-49 -14v-262l-211 -42v-1119h125v-121h-434l-10 57l-6 56q-101 -72 -211.5 -115t-212.5 -43 q-113 0 -243 60.5t-172 179t-42 319.5v883h-141zM675 2161l104 108q68 -54 99.5 -109.5t31.5 -113.5q0 -61 -32 -141l-9 -33q-12 -37 -12 -59q0 -16 10 -36l21 -44l-107 -99q-49 43 -72.5 87t-23.5 83q0 43 27 106l14 32q21 49 21 81q0 68 -72 138z" />
<glyph unicode="&#x1eed;" horiz-adv-x="1268" d="M79 801v121l401 127l-8 -58l-2 -39v-528q0 -113 9 -162t55 -82q45 -28 94 -28l33 4l43 12q22 8 62 35.5t62 60.5v565l-112 -28v121l403 127l-6 -45l-2 -52v-61l45 9v149l181 39v-86l-49 -14v-206l-177 -36v-644h111v-102h-385l-7 45l-2 57q-94 -65 -191 -104t-177 -39 q-68 0 -142.5 37t-100 111.5t-25.5 191.5v530zM665 1657l104 108q68 -54 99.5 -109.5t31.5 -113.5q0 -61 -32 -141l-9 -33q-12 -37 -12 -59q0 -16 10 -36l21 -44l-107 -99q-49 43 -72.5 87t-23.5 83q0 43 27 106l14 32q21 49 21 81q0 68 -72 138z" />
<glyph unicode="&#x1eee;" horiz-adv-x="1568" d="M75 1397v123h454v-967q0 -147 23 -231q20 -89 97 -130.5t171 -41.5l86 6q29 6 89.5 43t87 120.5t26.5 210.5v867h-141v123h454v-134l23 4v98l-2 56l-5 51l244 49v-86l-49 -14v-262l-211 -42v-1119h125v-121h-434l-10 57l-6 56q-101 -72 -211.5 -115t-212.5 -43 q-113 0 -243 60.5t-172 179t-42 319.5v883h-141zM515 1761q98 99 195 99q49 0 120 -27l37 -14q62 -21 95 -21q73 0 157 72l121 -107q-61 -67 -124.5 -97t-127.5 -30h-45q-22 6 -36.5 9.5t-35 8.5t-45.5 13l-36 10l-68 11q-31 0 -92 -31z" />
<glyph unicode="&#x1eef;" horiz-adv-x="1268" d="M79 801v121l401 127l-8 -58l-2 -39v-528q0 -113 9 -162t55 -82q45 -28 94 -28l33 4l43 12q22 8 62 35.5t62 60.5v565l-112 -28v121l403 127l-6 -45l-2 -52v-61l45 9v149l181 39v-86l-49 -14v-206l-177 -36v-644h111v-102h-385l-7 45l-2 57q-94 -65 -191 -104t-177 -39 q-68 0 -142.5 37t-100 111.5t-25.5 191.5v530zM350 1274q16 16 48 38.5t50 33.5q45 22 97 22l55 -6l65 -19l35 -14q56 -20 92 -20q76 0 160 71l123 -104q-59 -66 -124.5 -98.5t-131.5 -32.5q-70 0 -162 33l-37 10l-61 8q-25 0 -55 -12l-41 -17z" />
<glyph unicode="&#x1ef0;" horiz-adv-x="1568" d="M75 1397v123h454v-967q0 -147 23 -231q20 -89 97 -130.5t171 -41.5l86 6q29 6 89.5 43t87 120.5t26.5 210.5v867h-141v123h454v-134l23 4v98l-2 56l-5 51l244 49v-86l-49 -14v-262l-211 -42v-1119h125v-121h-434l-10 57l-6 56q-101 -72 -211.5 -115t-212.5 -43 q-113 0 -243 60.5t-172 179t-42 319.5v883h-141zM732 -236q0 34 17.5 64t54.5 46l45 6l43 -6q16 -2 34.5 -15.5t34.5 -45.5q11 -25 15 -62q0 -35 -17 -61q-12 -27 -41.5 -42.5t-66.5 -19.5q-23 0 -66 19q-35 18 -47 63z" />
<glyph unicode="&#x1ef1;" horiz-adv-x="1268" d="M79 801v121l401 127l-8 -58l-2 -39v-528q0 -113 9 -162t55 -82q45 -28 94 -28l33 4l43 12q22 8 62 35.5t62 60.5v565l-112 -28v121l403 127l-6 -45l-2 -52v-61l45 9v149l181 39v-86l-49 -14v-206l-177 -36v-644h111v-102h-385l-7 45l-2 57q-94 -65 -191 -104t-177 -39 q-68 0 -142.5 37t-100 111.5t-25.5 191.5v530zM529 -236q0 34 17.5 64t54.5 46l45 6l43 -6q17 -2 35 -15.5t35 -45.5q10 -25 14 -62q0 -35 -16 -61q-13 -27 -42.5 -42.5t-66.5 -19.5q-22 0 -65 19q-35 18 -47 63z" />
<glyph unicode="&#x1ef2;" horiz-adv-x="1466" d="M49 1397v123h616v-123h-145l334 -619l325 619h-147v123h447v-123h-105l-584 -1161l25 2l29 2q39 0 94 -18.5t94 -18.5q33 0 59 14l41 33l35 49l64 -31q-31 -94 -88.5 -181t-100.5 -99l-65 -11q-45 0 -144 25q-43 10 -61 14q-51 13 -72 13l-37 -4l-43 -13q-20 -6 -65 -45 l-90 64l211 409l-512 957h-115zM645 1788l84 158l330 -240l-62 -113z" />
<glyph unicode="&#x1ef3;" horiz-adv-x="1134" d="M32 862l367 197l22 -68l43 -94q70 76 135 115q62 32 117 32q37 0 78 -10l80 -16l28 -6l58 -6q26 0 52 7t60 34l74 -62l-31 -51l-28 -51l-426 -996q-33 -82 -63.5 -140t-57.5 -89q-47 -59 -117 -72l-92 -10q-61 0 -141 25l49 249q45 -22 104 -22q47 0 88 13.5t65.5 43 t37.5 58.5l22 57l-379 811l-92 -51zM389 1360l86 160l330 -244l-62 -111zM499 821l209 -485l186 457l-39 2l-35 8l-102 37q-61 22 -96 26q-51 0 -123 -45z" />
<glyph unicode="&#x1ef4;" horiz-adv-x="1466" d="M49 1397v123h616v-123h-145l334 -619l325 619h-147v123h447v-123h-105l-584 -1161l25 2l29 2q39 0 94 -18.5t94 -18.5q33 0 59 14l41 33l35 49l64 -31q-31 -94 -88.5 -181t-100.5 -99l-65 -11q-45 0 -144 25q-43 10 -61 14q-51 13 -72 13l-37 -4l-43 -13q-20 -6 -65 -45 l-90 64l211 409l-512 957h-115zM649 -236q0 34 17.5 64t53.5 46l46 6l43 -6q16 -2 34.5 -15.5t34.5 -45.5q10 -25 14 -62q0 -35 -16 -61q-12 -27 -42 -42.5t-66 -19.5q-23 0 -66 19q-35 18 -47 63z" />
<glyph unicode="&#x1ef5;" horiz-adv-x="1134" d="M32 862l367 197l22 -68l43 -94q70 76 135 115q62 32 117 32q37 0 78 -10l80 -16l28 -6l58 -6q26 0 52 7t60 34l74 -62l-31 -51l-28 -51l-426 -996q-33 -82 -63.5 -140t-57.5 -89q-47 -59 -117 -72l-92 -10q-61 0 -141 25l49 249q45 -22 104 -22q47 0 88 13.5t65.5 43 t37.5 58.5l22 57l-379 811l-92 -51zM499 821l209 -485l186 457l-39 2l-35 8l-102 37q-61 22 -96 26q-51 0 -123 -45zM708 -236q0 34 17.5 64t54.5 46l45 6l43 -6q17 -2 35 -15.5t35 -45.5q10 -25 14 -62q0 -35 -16 -61q-13 -27 -42.5 -42.5t-66.5 -19.5q-22 0 -65 19 q-35 18 -47 63z" />
<glyph unicode="&#x1ef6;" horiz-adv-x="1466" d="M49 1397v123h616v-123h-145l334 -619l325 619h-147v123h447v-123h-105l-584 -1161l25 2l29 2q39 0 94 -18.5t94 -18.5q33 0 59 14l41 33l35 49l64 -31q-31 -94 -88.5 -181t-100.5 -99l-65 -11q-45 0 -144 25q-43 10 -61 14q-51 13 -72 13l-37 -4l-43 -13q-20 -6 -65 -45 l-90 64l211 409l-512 957h-115zM760 2161l104 108q68 -54 99.5 -109.5t31.5 -113.5q0 -61 -32 -141l-9 -33q-12 -37 -12 -59q0 -16 10 -36l21 -44l-107 -99q-49 43 -72.5 87t-23.5 83q0 43 27 106l14 32q20 49 20 81q0 68 -71 138z" />
<glyph unicode="&#x1ef7;" horiz-adv-x="1134" d="M32 862l367 197l22 -68l43 -94q70 76 135 115q62 32 117 32q37 0 78 -10l80 -16l28 -6l58 -6q26 0 52 7t60 34l74 -62l-31 -51l-28 -51l-426 -996q-33 -82 -63.5 -140t-57.5 -89q-47 -59 -117 -72l-92 -10q-61 0 -141 25l49 249q45 -22 104 -22q47 0 88 13.5t65.5 43 t37.5 58.5l22 57l-379 811l-92 -51zM499 821l209 -485l186 457l-39 2l-35 8l-102 37q-61 22 -96 26q-51 0 -123 -45zM591 1657l104 108q68 -54 99.5 -109.5t31.5 -113.5q0 -61 -32 -141l-9 -33q-12 -37 -12 -59q0 -16 10 -36l21 -44l-107 -99q-49 43 -72.5 87t-23.5 83 q0 43 27 106l14 32q21 49 21 81q0 68 -72 138z" />
<glyph unicode="&#x1ef8;" horiz-adv-x="1466" d="M49 1397v123h616v-123h-145l334 -619l325 619h-147v123h447v-123h-105l-584 -1161l25 2l29 2q39 0 94 -18.5t94 -18.5q33 0 59 14l41 33l35 49l64 -31q-31 -94 -88.5 -181t-100.5 -99l-65 -11q-45 0 -144 25q-43 10 -61 14q-51 13 -72 13l-37 -4l-43 -13q-20 -6 -65 -45 l-90 64l211 409l-512 957h-115zM516 1761q98 99 195 99q49 0 120 -27l37 -14q62 -21 94 -21q74 0 158 72l121 -107q-62 -67 -125 -97t-127 -30h-45q-23 6 -37 9.5t-34.5 8.5t-45.5 13l-37 10l-67 11q-31 0 -92 -31z" />
<glyph unicode="&#x1ef9;" horiz-adv-x="1134" d="M32 862l367 197l22 -68l43 -94q70 76 135 115q62 32 117 32q37 0 78 -10l80 -16l28 -6l58 -6q26 0 52 7t60 34l74 -62l-31 -51l-28 -51l-426 -996q-33 -82 -63.5 -140t-57.5 -89q-47 -59 -117 -72l-92 -10q-61 0 -141 25l49 249q45 -22 104 -22q47 0 88 13.5t65.5 43 t37.5 58.5l22 57l-379 811l-92 -51zM350 1274q16 16 48 38.5t50 33.5q45 22 97 22l55 -6l65 -19l35 -14q56 -20 92 -20q76 0 160 71l123 -104q-59 -66 -124.5 -98.5t-131.5 -32.5q-70 0 -162 33l-37 10l-61 8q-25 0 -55 -12l-41 -17zM499 821l209 -485l186 457l-39 2l-35 8 l-102 37q-61 22 -96 26q-51 0 -123 -45z" />
<glyph unicode="&#x2000;" horiz-adv-x="1243" />
<glyph unicode="&#x2001;" horiz-adv-x="2486" />
<glyph unicode="&#x2002;" horiz-adv-x="1243" />
<glyph unicode="&#x2003;" horiz-adv-x="2486" />
<glyph unicode="&#x2004;" horiz-adv-x="828" />
<glyph unicode="&#x2005;" horiz-adv-x="621" />
<glyph unicode="&#x2006;" horiz-adv-x="414" />
<glyph unicode="&#x2007;" horiz-adv-x="414" />
<glyph unicode="&#x2008;" horiz-adv-x="310" />
<glyph unicode="&#x2009;" horiz-adv-x="497" />
<glyph unicode="&#x200a;" horiz-adv-x="138" />
<glyph unicode="&#x2010;" horiz-adv-x="696" d="M79 410v155h596v-155h-596z" />
<glyph unicode="&#x2011;" horiz-adv-x="696" d="M79 410v155h596v-155h-596z" />
<glyph unicode="&#x2012;" horiz-adv-x="696" d="M79 410v155h596v-155h-596z" />
<glyph unicode="&#x2013;" horiz-adv-x="1124" d="M79 410v155h1024v-155h-1024z" />
<glyph unicode="&#x2014;" horiz-adv-x="2148" d="M79 410v155h2048v-155h-2048z" />
<glyph unicode="&#x2018;" horiz-adv-x="442" d="M69 1223q0 39 8 68.5t33 70.5q43 70 95 105.5t136 62.5l29 -96l-37 -13q-18 -6 -43.5 -24.5t-25.5 -59.5q38 0 81 -26q37 -19 49.5 -53.5t16.5 -65.5l-6 -49q-6 -17 -29.5 -49.5t-64.5 -51.5q-19 -8 -36.5 -10t-43.5 -2q-41 0 -79 24.5t-60.5 73t-22.5 95.5z" />
<glyph unicode="&#x2019;" horiz-adv-x="442" d="M71 1368q0 49 28.5 90t59.5 52.5t48.5 15.5t43.5 4q35 0 75 -24.5t63.5 -72t23.5 -96.5q0 -67 -43 -138t-93 -105.5t-136 -63.5l-31 96l33 9q22 8 50 29.5t28 58.5q-46 0 -84.5 21.5t-52 59t-13.5 64.5z" />
<glyph unicode="&#x201c;" horiz-adv-x="890" d="M59 1221q0 69 39 139t93 106.5t138 63.5l29 -96l-39 -13q-16 -4 -41.5 -24.5t-25.5 -59.5q45 0 81.5 -21.5t49 -57t16.5 -66.5l-6 -49q-6 -17 -29.5 -49.5t-64.5 -51.5q-19 -8 -36.5 -10t-41.5 -2q-45 0 -80 22.5t-58.5 70.5t-23.5 98zM526 1219q0 71 43 143t93 106.5 t136 61.5l31 -96l-37 -13q-24 -6 -49 -28q-25 -19 -25 -56q46 0 81.5 -21.5t54.5 -60.5q10 -32 14 -63q0 -47 -28.5 -88t-71.5 -60q-43 -14 -80 -14q-35 0 -78 25q-37 24 -60.5 68t-23.5 96z" />
<glyph unicode="&#x201d;" horiz-adv-x="890" d="M59 1364q0 53 28.5 94t69.5 56.5t80 15.5q37 0 75 -22.5t62.5 -67.5t24.5 -99q0 -73 -45 -145q-39 -68 -90 -102.5t-137 -63.5l-29 96l35 13q22 10 47.5 29.5t25.5 54.5q-45 0 -81.5 21.5t-51 54t-14.5 65.5zM526 1368l6 49q4 15 9 23t20 28q24 31 65 46.5t80 15.5 q37 0 75 -22.5t61.5 -69.5t23.5 -99q0 -39 -8 -70.5t-33 -72.5q-39 -68 -90 -103.5t-139 -62.5l-29 96l39 11l41 26q26 23 26 60q-20 0 -38.5 6t-45.5 18q-36 21 -49.5 57.5t-13.5 63.5z" />
<glyph unicode="&#x2026;" horiz-adv-x="1355" d="M67 141q0 62 29.5 104t93.5 60l35 6q51 0 102 -45t51 -114l-4 -43q-4 -27 -26.5 -56.5t-59.5 -48.5q-37 -14 -71 -14q-41 0 -95.5 35.5t-54.5 115.5zM478 141q0 62 29.5 104t93.5 60l35 6q51 0 102 -45t51 -114l-4 -43q-4 -27 -26.5 -56.5t-59.5 -48.5q-37 -14 -71 -14 q-41 0 -95.5 35.5t-54.5 115.5zM920 141q0 62 29.5 104t93.5 60l35 6q51 0 102 -45t51 -114l-4 -43q-4 -27 -26.5 -56.5t-59.5 -48.5q-37 -14 -71 -14q-41 0 -95.5 35.5t-54.5 115.5z" />
<glyph unicode="&#x202f;" horiz-adv-x="497" />
<glyph unicode="&#x205f;" horiz-adv-x="621" />
<glyph unicode="&#x25fc;" horiz-adv-x="1025" d="M0 0v1025h1025v-1025h-1025z" />
</font>
</defs>
</svg>
